<?xml version="1.0" encoding="UTF-8" standalone="no"?>
<svg
   xmlns:dc="http://purl.org/dc/elements/1.1/"
   xmlns:cc="http://creativecommons.org/ns#"
   xmlns:rdf="http://www.w3.org/1999/02/22-rdf-syntax-ns#"
   xmlns:svg="http://www.w3.org/2000/svg"
   xmlns="http://www.w3.org/2000/svg"
   xmlns:sodipodi="http://sodipodi.sourceforge.net/DTD/sodipodi-0.dtd"
   xmlns:inkscape="http://www.inkscape.org/namespaces/inkscape"
   width="63mm"
   height="60mm"
   viewBox="0 0 63 60"
   version="1.1"
   id="svg8"
   inkscape:version="1.0 (4035a4fb49, 2020-05-01)"
   sodipodi:docname="liberacao.svg">
  <defs
     id="defs2">
    <inkscape:path-effect
       effect="bspline"
       id="path-effect935"
       is_visible="true"
       lpeversion="1"
       weight="33.333333"
       steps="2"
       helper_size="0"
       apply_no_weight="true"
       apply_with_weight="true"
       only_selected="false" />
    <inkscape:path-effect
       effect="bspline"
       id="path-effect931"
       is_visible="true"
       lpeversion="1"
       weight="33.333333"
       steps="2"
       helper_size="0"
       apply_no_weight="true"
       apply_with_weight="true"
       only_selected="false" />
    <inkscape:path-effect
       effect="bspline"
       id="path-effect927"
       is_visible="true"
       lpeversion="1"
       weight="33.333333"
       steps="2"
       helper_size="0"
       apply_no_weight="true"
       apply_with_weight="true"
       only_selected="false" />
    <inkscape:path-effect
       effect="bspline"
       id="path-effect923"
       is_visible="true"
       lpeversion="1"
       weight="33.333333"
       steps="2"
       helper_size="0"
       apply_no_weight="true"
       apply_with_weight="true"
       only_selected="false" />
    <inkscape:path-effect
       effect="bspline"
       id="path-effect919"
       is_visible="true"
       lpeversion="1"
       weight="33.333333"
       steps="2"
       helper_size="0"
       apply_no_weight="true"
       apply_with_weight="true"
       only_selected="false" />
    <inkscape:path-effect
       effect="bspline"
       id="path-effect915"
       is_visible="true"
       lpeversion="1"
       weight="33.333333"
       steps="2"
       helper_size="0"
       apply_no_weight="true"
       apply_with_weight="true"
       only_selected="false" />
    <inkscape:path-effect
       effect="bspline"
       id="path-effect911"
       is_visible="true"
       lpeversion="1"
       weight="33.333333"
       steps="2"
       helper_size="0"
       apply_no_weight="true"
       apply_with_weight="true"
       only_selected="false" />
    <inkscape:path-effect
       effect="bspline"
       id="path-effect907"
       is_visible="true"
       lpeversion="1"
       weight="33.333333"
       steps="2"
       helper_size="0"
       apply_no_weight="true"
       apply_with_weight="true"
       only_selected="false" />
    <inkscape:path-effect
       effect="bspline"
       id="path-effect903"
       is_visible="true"
       lpeversion="1"
       weight="33.333333"
       steps="2"
       helper_size="0"
       apply_no_weight="true"
       apply_with_weight="true"
       only_selected="false" />
    <inkscape:path-effect
       effect="bspline"
       id="path-effect899"
       is_visible="true"
       lpeversion="1"
       weight="33.333333"
       steps="2"
       helper_size="0"
       apply_no_weight="true"
       apply_with_weight="true"
       only_selected="false" />
    <inkscape:path-effect
       effect="bspline"
       id="path-effect860"
       is_visible="true"
       lpeversion="1"
       weight="33.333333"
       steps="2"
       helper_size="0"
       apply_no_weight="true"
       apply_with_weight="true"
       only_selected="false" />
    <inkscape:path-effect
       effect="bspline"
       id="path-effect856"
       is_visible="true"
       lpeversion="1"
       weight="33.333333"
       steps="2"
       helper_size="0"
       apply_no_weight="true"
       apply_with_weight="true"
       only_selected="false" />
    <inkscape:path-effect
       effect="bspline"
       id="path-effect852"
       is_visible="true"
       lpeversion="1"
       weight="33.333333"
       steps="2"
       helper_size="0"
       apply_no_weight="true"
       apply_with_weight="true"
       only_selected="false" />
  </defs>
  <sodipodi:namedview
     id="base"
     pagecolor="#ffffff"
     bordercolor="#666666"
     borderopacity="1.0"
     inkscape:pageopacity="0.0"
     inkscape:pageshadow="2"
     inkscape:zoom="0.70000001"
     inkscape:cx="317.20627"
     inkscape:cy="264.24135"
     inkscape:document-units="mm"
     inkscape:current-layer="layer1"
     inkscape:document-rotation="0"
     showgrid="false"
     inkscape:window-width="1164"
     inkscape:window-height="1033"
     inkscape:window-x="745"
     inkscape:window-y="2"
     inkscape:window-maximized="0"
     inkscape:object-nodes="false"
     inkscape:snap-intersection-paths="true" />
  <metadata
     id="metadata5">
    <rdf:RDF>
      <cc:Work
         rdf:about="">
        <dc:format>image/svg+xml</dc:format>
        <dc:type
           rdf:resource="http://purl.org/dc/dcmitype/StillImage" />
        <dc:title></dc:title>
      </cc:Work>
    </rdf:RDF>
  </metadata>
  <g
     inkscape:label="Layer 1"
     inkscape:groupmode="layer"
     id="layer1">
    <path
       style="fill:#ff0000;fill-opacity:1;stroke:#000000;stroke-width:3.6;stroke-linecap:round;stroke-linejoin:miter;stroke-miterlimit:4;stroke-dasharray:none;stroke-opacity:1"
       d="M 5.1162241,18.682119 C 10.060707,13.648546 15.005195,8.6149671 19.949683,3.581389"
       id="path897"
       inkscape:path-effect="#path-effect899"
       inkscape:original-d="M 5.1162241,18.682119 C 10.060974,13.648809 15.005462,8.615229 19.949683,3.581389" />
    <path
       style="fill:none;fill-opacity:1;stroke:#000000;stroke-width:3.6;stroke-linecap:butt;stroke-linejoin:miter;stroke-miterlimit:4;stroke-dasharray:none;stroke-opacity:1"
       d="m 17.978569,5.886589 c 0.122814,0.044662 0.245331,0.089215 1.102799,0.08915 0.857468,-6.48e-5 2.449915,-0.044611 4.393232,0.1057574 1.943317,0.1503678 4.237332,0.4955838 6.275281,0.796264 2.037949,0.3006801 3.81971,0.5568082 5.440037,0.7349774 1.620328,0.1781692 3.079148,0.278394 4.048021,0.4399353 0.968873,0.1615412 1.447723,0.3842614 1.848588,0.69058 0.400865,0.3063186 0.72381,0.6960827 0.946454,1.1471174 0.222644,0.4510345 0.345141,0.9632855 0.339512,1.4643595 -0.0056,0.501073 -0.139259,0.991053 -0.353612,1.38352 -0.214354,0.392467 -0.520595,0.698706 -0.893593,0.938106 -0.372998,0.239401 -0.818439,0.417577 -1.297259,0.540089 -0.478821,0.122512 -0.991079,0.189328 -2.036763,0.247327 -1.045685,0.058 -2.624756,0.107159 -4.204127,0.156327"
       id="path901"
       inkscape:path-effect="#path-effect903"
       inkscape:original-d="m 17.978569,5.886589 c 0.122764,0.0448 0.245264,0.0894 0.367496,0.13364 1.592778,-0.0443 3.185226,-0.0888 4.777444,-0.13364 2.294374,0.3455 4.58839,0.69071 6.88219,1.03567 1.7821,0.2564 3.56386,0.51253 5.34539,0.7684 1.45914,0.10049 2.91796,0.20072 4.37654,0.30068 0.47913,0.22299 0.95798,0.44571 1.43657,0.66817 0.32322,0.39004 0.64617,0.7798 0.96885,1.16931 0.12277,0.51254 0.24527,1.02479 0.3675,1.5368 -0.13337,0.49027 -0.267,0.98025 -0.4009,1.46998 -0.28929,0.30095 -0.6011,0.60162 -0.90204,0.90203 -0.44519,0.17845 -0.89063,0.35663 -1.33635,0.53454 -0.51201,0.0671 -1.02427,0.1339 -1.5368,0.20045 -1.57887,0.0494 -3.15794,0.0986 -4.73732,0.14748"
       sodipodi:nodetypes="cccccccccccccc" />
    <path
       style="fill:none;stroke:#000000;stroke-width:3.6;stroke-linecap:round;stroke-linejoin:miter;stroke-miterlimit:4;stroke-dasharray:none;stroke-opacity:1"
       d="m 33.413389,14.572849 c 3.363403,3.363407 6.726547,6.726553 8.784163,8.811831 2.057616,2.085277 2.820037,2.903758 3.265392,3.644339 0.445355,0.740582 0.578989,1.408741 0.573366,2.032316 -0.0056,0.623576 -0.150394,1.202646 -0.373118,1.698145 -0.222724,0.495499 -0.523393,0.90753 -0.985433,1.174756 -0.46204,0.267226 -1.085651,0.389722 -1.609007,0.40648 -0.523355,0.01676 -0.946532,-0.07233 -1.370013,-0.161487"
       id="path905"
       inkscape:path-effect="#path-effect907"
       inkscape:original-d="m 33.413389,14.572849 c 3.3634,3.36341 6.72655,6.72655 10.08942,10.08943 0.74641,0.81322 1.51479,1.62615 2.27179,2.43883 0.13391,0.66845 0.26754,1.33661 0.40091,2.00452 -0.14451,0.57936 -0.28928,1.15843 -0.43432,1.73725 -0.30042,0.41232 -0.60109,0.82435 -0.90203,1.23612 -0.62338,0.12277 -1.24699,0.24527 -1.87089,0.3675 -0.42292,-0.0888 -0.84609,-0.17792 -1.26953,-0.26727" />
    <path
       style="fill:none;stroke:#000000;stroke-width:3.6;stroke-linecap:round;stroke-linejoin:miter;stroke-miterlimit:4;stroke-dasharray:none;stroke-opacity:1"
       d="m 7.5122751,22.820309 c 0.2205543,0.992494 0.4410409,1.984684 0.8327969,2.957688 0.391756,0.973004 0.9627777,1.940568 2.120384,3.334352 1.157605,1.393784 2.90571,3.220635 5.417715,5.71688 2.512005,2.496246 5.787729,5.661728 7.799067,7.563468 2.011337,1.90174 2.776377,2.555211 3.516587,2.901579 0.740209,0.346369 1.464653,0.393615 2.069826,0.242509 0.605174,-0.151106 1.126982,-0.526156 1.555529,-1.020293 0.428546,-0.494138 0.768278,-1.096389 0.91793,-1.710512 0.149653,-0.614124 0.102407,-1.22832 -1.460534,-3.098553 -1.56294,-1.870233 -4.626185,-4.980603 -7.6975,-8.099168"
       id="path909"
       inkscape:path-effect="#path-effect911"
       inkscape:original-d="m 7.5122751,22.820309 c 0.220752,0.99245 0.441237,1.98464 0.661458,2.97656 0.551492,0.96098 1.134195,1.92165 1.700895,2.88207 1.7484379,1.82719 3.4965429,3.65404 5.2444169,5.48066 3.276127,3.16588 6.551854,6.33136 9.827382,9.49665 0.740484,0.64599 1.51217,1.29168 2.267862,1.93713 0.72473,0.0475 1.44917,0.0948 2.17336,0.14174 0.48849,-0.34622 1.0082,-0.72419 1.5119,-1.08668 0.34675,-0.62971 0.69322,-1.22816 1.03944,-1.84264 -0.047,-0.61396 -0.0942,-1.22816 -0.14174,-1.84263 -3.08661,-3.1181 -6.141853,-6.23635 -9.213173,-9.35491" />
    <path
       style="fill:none;stroke:#000000;stroke-width:3.6;stroke-linecap:round;stroke-linejoin:miter;stroke-miterlimit:4;stroke-dasharray:none;stroke-opacity:1"
       d="m 28.206469,28.017479 c 1.858653,1.795647 3.717036,3.591034 5.34707,5.205325 1.630033,1.614292 3.03167,3.047425 3.899222,4.121409 0.867551,1.073984 1.195457,1.776638 1.281664,2.518333 0.08621,0.741696 -0.07066,1.5103 -0.409223,2.092898 -0.338568,0.582598 -0.858277,0.976319 -1.425146,1.196811 -0.566868,0.220493 -1.181072,0.267739 -1.732256,0.228415 -0.551184,-0.03932 -1.039394,-0.165312 -1.819002,-0.763692 -0.779607,-0.598381 -1.850526,-1.669302 -2.921719,-2.740499"
       id="path913"
       inkscape:path-effect="#path-effect915"
       inkscape:original-d="m 28.206469,28.017479 c 1.85865,1.79565 3.71703,3.59104 5.57515,5.38616 1.40195,1.43346 2.80359,2.86659 4.20499,4.29948 0.34675,0.70899 0.66172,1.41768 0.99219,2.12612 -0.17298,0.77198 -0.31472,1.54367 -0.47248,2.3151 -0.51946,0.394 -1.03917,0.78772 -1.55915,1.18118 -0.61396,0.0475 -1.22816,0.0948 -1.84263,0.14174 -0.48797,-0.12573 -0.97618,-0.25172 -1.46466,-0.37797 -1.07069,-1.07069 -2.14161,-2.14161 -3.2128,-3.21281"
       sodipodi:nodetypes="ccccccccc" />
    <path
       style="fill:none;stroke:#000000;stroke-width:3.6;stroke-linecap:round;stroke-linejoin:miter;stroke-miterlimit:4;stroke-dasharray:none;stroke-opacity:1"
       d="m 32.411459,22.631319 c 1.323177,1.354683 2.646097,2.709103 4.173768,4.268272 1.527671,1.559169 3.260028,3.323022 4.661697,4.771943 1.401668,1.448921 2.472581,2.582829 3.063069,3.441172 0.590489,0.858342 0.70073,1.441042 0.669179,2.0867 -0.03155,0.645658 -0.204788,1.354349 -0.494195,1.825616 -0.289407,0.471267 -0.702649,0.709674 -1.167201,0.890791 -0.464552,0.181118 -0.974552,0.304756 -1.72594,0.274973 -0.751387,-0.02978 -1.689198,-0.210909 -2.645137,-0.395537"
       id="path917"
       inkscape:path-effect="#path-effect919"
       inkscape:original-d="m 32.411459,22.631319 c 1.32318,1.35468 2.6461,2.7091 3.96875,4.06325 1.73269,1.76419 3.46505,3.52804 5.19717,5.29166 1.07122,1.13422 2.14213,2.26813 3.2128,3.40179 0.11051,0.58299 0.22075,1.16569 0.33073,1.74814 -0.17298,0.70898 -0.34622,1.41767 -0.51972,2.12612 -0.40544,0.23432 -0.81868,0.47273 -1.22842,0.7087 -0.51947,0.12626 -1.02947,0.2499 -1.55915,0.37798 -0.97321,-0.18775 -1.91102,-0.36888 -2.86692,-0.55371"
       sodipodi:nodetypes="ccccccccc" />
    <path
       style="fill:none;stroke:#000000;stroke-width:3.6;stroke-linecap:round;stroke-linejoin:miter;stroke-miterlimit:4;stroke-dasharray:none;stroke-opacity:1"
       d="m 58.917039,26.411079 c -1.307043,0.551165 -2.614205,1.102379 -4.055227,1.574859 -1.441021,0.472479 -3.015891,0.866197 -4.467519,1.028277 -1.451627,0.162079 -2.946081,0.08375 -4.357814,0.0098"
       id="path921"
       inkscape:path-effect="#path-effect923"
       inkscape:original-d="m 58.917039,26.411079 c -1.30691,0.55148 -2.61407,1.1027 -3.9215,1.65365 -1.57467,0.394 -3.14954,0.78772 -4.72471,1.18118 -1.33843,0.12626 -2.82263,-0.1477 -4.23435,-0.22194" />
    <path
       style="fill:none;stroke:#000000;stroke-width:3.6;stroke-linecap:round;stroke-linejoin:miter;stroke-miterlimit:4;stroke-dasharray:none;stroke-opacity:1"
       d="m 3.4490311,34.679309 c 0.126257,0 0.252249,0 2.2287551,-0.0079 1.9765061,-0.0079 5.8035018,-0.0236 9.6302488,-0.03933"
       id="path925"
       inkscape:path-effect="#path-effect927"
       inkscape:original-d="m 3.4490311,34.679309 c 0.126257,2.7e-4 0.252249,2.7e-4 0.377976,0 3.827351,2.7e-4 7.6542819,-0.0312 11.4810279,-0.0472" />
    <path
       style="fill:none;stroke:#000000;stroke-width:3.6;stroke-linecap:round;stroke-linejoin:miter;stroke-miterlimit:4;stroke-dasharray:none;stroke-opacity:1"
       d="m 19.465774,50.081839 c 0.06326,0 0.126256,0 1.386264,0.101736 1.260008,0.101736 3.748196,0.307767 6.244419,0.323496 2.496223,0.01573 5.016013,-0.157509 7.379075,-0.596226 2.363063,-0.438718 4.597917,-1.15197 6.479901,-1.947303 1.881984,-0.795332 3.425356,-1.677257 4.945128,-2.700946 1.519771,-1.023688 3.015891,-2.189089 4.189178,-3.236388 1.173286,-1.0473 2.023715,-1.97647 2.87417,-2.905669"
       id="path929"
       inkscape:path-effect="#path-effect931"
       inkscape:original-d="m 19.465774,50.081839 c 0.06326,2.7e-4 0.126256,2.7e-4 0.188986,0 2.457159,0.20501 4.945454,0.40974 7.417789,0.61422 2.52015,-0.17298 5.03994,-0.34622 7.55952,-0.51972 2.20517,-0.70846 4.44148,-1.41715 6.66183,-2.12612 1.5437,-0.88169 3.08707,-1.76362 4.63021,-2.64583 1.49645,-1.16519 2.99257,-2.33059 4.48846,-3.49628 0.85073,-0.92895 1.70116,-1.85812 2.55134,-2.78757" />
    <path
       style="fill:none;stroke:#000000;stroke-width:3.6;stroke-linecap:round;stroke-linejoin:miter;stroke-miterlimit:4;stroke-dasharray:none;stroke-opacity:1"
       d="m 33.498139,55.845979 c 0.0948,0 0.18925,0 0.915026,-0.11837 0.725777,-0.11837 2.077491,-0.354132 3.683892,-0.74787 1.6064,-0.393739 3.464748,-0.944946 5.236496,-1.637912 1.771748,-0.692967 3.456859,-1.527646 5.141896,-2.362288"
       id="path933"
       inkscape:path-effect="#path-effect935"
       inkscape:original-d="m 33.498139,55.845979 c 0.0948,2.6e-4 0.18925,2.6e-4 0.28348,0 1.35471,-0.25172 2.70909,-0.4722 4.06325,-0.7087 1.85868,-0.55097 3.71703,-1.10217 5.57514,-1.65365 1.68545,-0.83445 3.37056,-1.66913 5.05544,-2.50409" />
  </g>
  <g
     inkscape:groupmode="layer"
     id="layer2"
     inkscape:label="Layer 2" />
</svg>
