<?xml version="1.0" encoding="UTF-8" standalone="no"?>
<svg
   xmlns:dc="http://purl.org/dc/elements/1.1/"
   xmlns:cc="http://creativecommons.org/ns#"
   xmlns:rdf="http://www.w3.org/1999/02/22-rdf-syntax-ns#"
   xmlns:svg="http://www.w3.org/2000/svg"
   xmlns="http://www.w3.org/2000/svg"
   xmlns:sodipodi="http://sodipodi.sourceforge.net/DTD/sodipodi-0.dtd"
   xmlns:inkscape="http://www.inkscape.org/namespaces/inkscape"
   width="63mm"
   height="60mm"
   viewBox="0 0 63 60"
   version="1.1"
   id="svg8"
   inkscape:version="1.0 (4035a4fb49, 2020-05-01)"
   sodipodi:docname="mckenzie.svg">
  <defs
     id="defs2">
    <inkscape:path-effect
       effect="bspline"
       id="path-effect967"
       is_visible="true"
       lpeversion="1"
       weight="33.333333"
       steps="2"
       helper_size="0"
       apply_no_weight="true"
       apply_with_weight="true"
       only_selected="false" />
    <inkscape:path-effect
       effect="bspline"
       id="path-effect957"
       is_visible="true"
       lpeversion="1"
       weight="33.333333"
       steps="2"
       helper_size="0"
       apply_no_weight="true"
       apply_with_weight="true"
       only_selected="false" />
    <inkscape:path-effect
       effect="bspline"
       id="path-effect953"
       is_visible="true"
       lpeversion="1"
       weight="33.333333"
       steps="2"
       helper_size="0"
       apply_no_weight="true"
       apply_with_weight="true"
       only_selected="false" />
    <inkscape:path-effect
       effect="bspline"
       id="path-effect935"
       is_visible="true"
       lpeversion="1"
       weight="33.333333"
       steps="2"
       helper_size="0"
       apply_no_weight="true"
       apply_with_weight="true"
       only_selected="false" />
    <inkscape:path-effect
       effect="bspline"
       id="path-effect931"
       is_visible="true"
       lpeversion="1"
       weight="33.333333"
       steps="2"
       helper_size="0"
       apply_no_weight="true"
       apply_with_weight="true"
       only_selected="false" />
    <inkscape:path-effect
       effect="bspline"
       id="path-effect927"
       is_visible="true"
       lpeversion="1"
       weight="33.333333"
       steps="2"
       helper_size="0"
       apply_no_weight="true"
       apply_with_weight="true"
       only_selected="false" />
    <inkscape:path-effect
       effect="bspline"
       id="path-effect923"
       is_visible="true"
       lpeversion="1"
       weight="33.333333"
       steps="2"
       helper_size="0"
       apply_no_weight="true"
       apply_with_weight="true"
       only_selected="false" />
    <inkscape:path-effect
       effect="bspline"
       id="path-effect919"
       is_visible="true"
       lpeversion="1"
       weight="33.333333"
       steps="2"
       helper_size="0"
       apply_no_weight="true"
       apply_with_weight="true"
       only_selected="false" />
    <inkscape:path-effect
       effect="bspline"
       id="path-effect915"
       is_visible="true"
       lpeversion="1"
       weight="33.333333"
       steps="2"
       helper_size="0"
       apply_no_weight="true"
       apply_with_weight="true"
       only_selected="false" />
    <inkscape:path-effect
       effect="bspline"
       id="path-effect911"
       is_visible="true"
       lpeversion="1"
       weight="33.333333"
       steps="2"
       helper_size="0"
       apply_no_weight="true"
       apply_with_weight="true"
       only_selected="false" />
    <inkscape:path-effect
       effect="bspline"
       id="path-effect907"
       is_visible="true"
       lpeversion="1"
       weight="33.333333"
       steps="2"
       helper_size="0"
       apply_no_weight="true"
       apply_with_weight="true"
       only_selected="false" />
    <inkscape:path-effect
       effect="bspline"
       id="path-effect903"
       is_visible="true"
       lpeversion="1"
       weight="33.333333"
       steps="2"
       helper_size="0"
       apply_no_weight="true"
       apply_with_weight="true"
       only_selected="false" />
    <inkscape:path-effect
       effect="bspline"
       id="path-effect899"
       is_visible="true"
       lpeversion="1"
       weight="33.333333"
       steps="2"
       helper_size="0"
       apply_no_weight="true"
       apply_with_weight="true"
       only_selected="false" />
    <inkscape:path-effect
       effect="bspline"
       id="path-effect860"
       is_visible="true"
       lpeversion="1"
       weight="33.333333"
       steps="2"
       helper_size="0"
       apply_no_weight="true"
       apply_with_weight="true"
       only_selected="false" />
    <inkscape:path-effect
       effect="bspline"
       id="path-effect856"
       is_visible="true"
       lpeversion="1"
       weight="33.333333"
       steps="2"
       helper_size="0"
       apply_no_weight="true"
       apply_with_weight="true"
       only_selected="false" />
    <inkscape:path-effect
       effect="bspline"
       id="path-effect852"
       is_visible="true"
       lpeversion="1"
       weight="33.333333"
       steps="2"
       helper_size="0"
       apply_no_weight="true"
       apply_with_weight="true"
       only_selected="false" />
  </defs>
  <sodipodi:namedview
     id="base"
     pagecolor="#ffffff"
     bordercolor="#666666"
     borderopacity="1.0"
     inkscape:pageopacity="0.0"
     inkscape:pageshadow="2"
     inkscape:zoom="0.70000001"
     inkscape:cx="295.96386"
     inkscape:cy="494.89749"
     inkscape:document-units="mm"
     inkscape:current-layer="layer1"
     inkscape:document-rotation="0"
     showgrid="false"
     inkscape:window-width="1920"
     inkscape:window-height="1051"
     inkscape:window-x="-9"
     inkscape:window-y="-9"
     inkscape:window-maximized="1"
     inkscape:object-nodes="false"
     inkscape:snap-intersection-paths="true" />
  <metadata
     id="metadata5">
    <rdf:RDF>
      <cc:Work
         rdf:about="">
        <dc:format>image/svg+xml</dc:format>
        <dc:type
           rdf:resource="http://purl.org/dc/dcmitype/StillImage" />
        <dc:title></dc:title>
      </cc:Work>
    </rdf:RDF>
  </metadata>
  <g
     inkscape:label="Layer 1"
     inkscape:groupmode="layer"
     id="layer1">
    <path
       style="fill:#000000;fill-opacity:1;stroke:#000000;stroke-width:0.264583px;stroke-linecap:butt;stroke-linejoin:miter;stroke-opacity:1"
       d="m 18.708362,29.399087 c -0.712684,0.456563 -2.138121,1.369732 -2.828448,1.843161 -0.690326,0.473428 -0.64579,0.506832 -0.456493,0.701743 0.189297,0.194911 0.523378,0.55126 0.957713,0.94101 0.434334,0.38975 0.968862,0.812922 1.642625,1.230502 0.673763,0.41758 1.486692,0.829612 2.360896,1.191514 0.874204,0.361902 1.809629,0.673709 3.145974,0.862977 1.336345,0.189269 3.073555,0.256084 4.955593,0.278352 1.882039,0.02227 3.908799,2e-6 6.013563,-0.03341 2.104764,-0.03341 4.287423,-0.07795 6.575947,-0.09465 2.288523,-0.0167 4.682763,-0.0056 6.781958,-2e-6 2.099194,0.0056 3.903234,0.0056 5.417772,-0.0056 1.514537,-0.01114 2.739498,-0.0334 3.86984,-0.03352 1.130342,-1.13e-4 2.188268,0.02239 2.728234,0.01682 0.539966,-0.0056 0.573365,-0.03897 0.528915,-0.16689 -0.04445,-0.127918 -0.166947,-0.35064 -0.391962,-0.552465 -0.225016,-0.201826 -0.543247,-0.377401 -0.94974,-0.477704 -0.406493,-0.100304 -0.896485,-0.122571 -1.1861,-0.11147 -0.289614,0.0111 -0.378742,0.05567 -0.506707,0.01682 -0.127966,-0.03884 -0.295003,-0.16134 -0.512153,-0.278317 -0.21715,-0.116977 -0.48441,-0.228336 -0.76283,-0.31746 -0.278421,-0.08912 -0.567948,-0.155938 -0.812974,-0.183821 -0.245027,-0.02788 -0.44548,-0.01675 -0.656054,0.04656 -0.210574,0.06331 -0.45775,0.192786 -0.557971,0.304337 -0.100221,0.111552 -0.06682,0.21177 -0.272762,0.261725 -0.205944,0.04995 -0.673654,0.04995 -2.912068,-0.14492 -2.238414,-0.194875 -6.258504,-0.584637 -8.274286,-0.818372 -2.015783,-0.233735 -2.026914,-0.311671 -2.104793,-0.467575 -0.07788,-0.155904 -0.222646,-0.389759 -0.450906,-0.662624 -0.228259,-0.272866 -0.540063,-0.584672 -0.918677,-0.863129 -0.378614,-0.278456 -0.824041,-0.523441 -1.469976,-0.651593 -0.645935,-0.128152 -1.492265,-0.139285 -2.205082,0.01103 -0.712817,0.150317 -1.291895,0.462131 -1.648253,0.651448 -0.356358,0.189318 -0.489982,0.256128 -1.364092,0.178218 -0.874109,-0.07791 -2.485269,-0.300141 -3.785501,-0.697402 C 27.359332,30.977161 26.38154,30.408255 25.596415,29.940528 24.81129,29.4728 24.221099,29.107562 23.575176,28.663235 22.929253,28.218908 22.227681,27.69551 21.854585,27.400459 c -0.373097,-0.295051 -0.417651,-0.361885 -0.540324,-0.200451 -0.122672,0.161433 -0.323047,0.551053 -0.534581,0.818255 -0.211533,0.267203 -0.434256,0.411971 -0.662532,0.545601 -0.228277,0.133631 -0.462136,0.25613 -0.579114,0.317405 -0.116978,0.06128 -0.116988,0.06125 -0.829672,0.517818 z"
       id="path955"
       inkscape:path-effect="#path-effect957"
       inkscape:original-d="m 19.421046,28.942524 c -1.425173,0.91343 -2.85061,1.8266 -4.276312,2.73951 0.04481,0.0337 0.08935,0.0671 0.133633,0.10023 0.334359,0.35663 0.66844,0.71298 1.002263,1.06907 0.534812,0.42345 1.069342,0.84662 1.603615,1.26954 0.813226,0.41231 1.626156,0.82434 2.438834,1.23612 0.935728,0.31208 1.871152,0.62389 2.806332,0.93544 1.737553,0.0671 3.474763,0.1339 5.211753,0.20045 2.0271,-0.022 4.05386,-0.0443 6.08038,-0.0668 2.18301,-0.0443 4.36567,-0.0888 6.54811,-0.13363 2.3946,0.0114 4.78884,0.0225 7.18287,0.0334 1.80436,2.6e-4 3.6084,2.6e-4 5.4122,0 1.22528,-0.022 2.45024,-0.0443 3.67496,-0.0668 1.03595,0.0225 2.09388,0.0448 3.14042,0.0668 0.0337,-0.0331 0.0671,-0.0665 0.10022,-0.10023 -0.12223,-0.22246 -0.24473,-0.44518 -0.36749,-0.66817 -0.3227,-0.18906 -0.64564,-0.3561 -0.96886,-0.53454 -0.48973,-0.022 -0.97972,-0.0443 -1.46998,-0.0668 -0.0888,0.0448 -0.17791,0.0894 -0.26727,0.13364 -0.16678,-0.12224 -0.33382,-0.24473 -0.50113,-0.3675 -0.26701,-0.1111 -0.53427,-0.22246 -0.80181,-0.33409 -0.28928,-0.0666 -0.57882,-0.13336 -0.86862,-0.20045 -0.20019,0.0114 -0.40064,0.0226 -0.60136,0.0334 -0.22246,0.11163 -0.46746,0.24526 -0.70158,0.3675 0.0337,0.10049 0.0671,0.20071 0.10022,0.30068 -0.44519,2.6e-4 -0.9129,2.6e-4 -1.36975,0 -4.02,-0.38952 -8.04009,-0.77928 -12.06054,-1.16931 -0.0109,-0.0777 -0.022,-0.15564 -0.0334,-0.23386 -0.14451,-0.2336 -0.28927,-0.46746 -0.43431,-0.70158 -0.31156,-0.31156 -0.62336,-0.62337 -0.93544,-0.93545 -0.4452,-0.24474 -0.89063,-0.48972 -1.33635,-0.73499 -0.8461,-0.0109 -1.69243,-0.022 -2.53906,-0.0334 -0.57883,0.31209 -1.15791,0.6239 -1.73725,0.93545 -0.13338,0.0671 -0.26701,0.1339 -0.40091,0.20045 -1.61451,-0.22246 -3.22567,-0.44469 -4.84426,-0.66818 -0.98189,-0.57118 -1.95968,-1.14009 -2.93996,-1.71055 -0.58997,-0.365 -1.18016,-0.73024 -1.77066,-1.09577 -0.701336,-0.52315 -1.402906,-1.04655 -2.10475,-1.57022 -0.04428,-0.0665 -0.08881,-0.13335 -0.133636,-0.20046 -0.200262,0.39018 -0.400638,0.7798 -0.601356,1.16931 -0.222465,0.14504 -0.445186,0.28981 -0.668174,0.43431 -0.2336,0.12277 -0.467458,0.24527 -0.701582,0.3675 z"
       sodipodi:nodetypes="sccccccccccccccccccccccccccccccccccccccccss" />
    <path
       style="fill:#000000;fill-opacity:1;stroke:#000000;stroke-width:3.6;stroke-linecap:round;stroke-linejoin:round;stroke-miterlimit:4;stroke-dasharray:none;stroke-opacity:1"
       id="path959"
       sodipodi:type="arc"
       sodipodi:cx="13.140219"
       sodipodi:cy="20.323072"
       sodipodi:rx="2.6726952"
       sodipodi:ry="2.505652"
       sodipodi:start="0"
       sodipodi:end="6.2655749"
       sodipodi:arc-type="slice"
       d="m 15.812914,20.323072 a 2.6726952,2.505652 0 0 1 -2.660928,2.505628 2.6726952,2.505652 0 0 1 -2.684359,-2.483565 2.6726952,2.505652 0 0 1 2.637292,-2.527496 2.6726952,2.505652 0 0 1 2.70758,2.46131 l -2.67228,0.04412 z" />
    <path
       style="fill:#000000;fill-opacity:1;stroke:#000000;stroke-width:2;stroke-linecap:round;stroke-linejoin:miter;stroke-miterlimit:4;stroke-dasharray:none;stroke-opacity:1"
       d="m 3.3180549,38.798084 c 19.1991261,0.02227 38.3979891,0.04453 57.5965891,0.0668"
       id="path965"
       inkscape:path-effect="#path-effect967"
       inkscape:original-d="m 3.3180549,38.798084 c 19.1991261,0.0225 38.3979891,0.0448 57.5965891,0.0668" />
  </g>
  <g
     inkscape:groupmode="layer"
     id="layer2"
     inkscape:label="Layer 2">
    <path
       style="fill:#000000;fill-opacity:1;stroke:#000000;stroke-width:0.264583px;stroke-linecap:butt;stroke-linejoin:miter;stroke-opacity:1"
       d="m 3.1226198,36.129403 c 0.128005,0.09352 0.3839282,0.280493 0.7751065,0.23461 0.3911782,-0.04588 0.9173661,-0.324361 2.3847853,-1.190639 1.4674192,-0.866278 3.8964144,-2.332613 5.9380074,-3.54508 2.041593,-1.212468 3.705868,-2.177165 4.847915,-2.886717 1.142046,-0.709551 1.761818,-1.163882 2.065626,-1.639618 0.303807,-0.475737 0.291941,-0.972868 0.202122,-1.339319 -0.08982,-0.366452 -0.257603,-0.60243 -0.544484,-0.794613 -0.286881,-0.192183 -0.693043,-0.34064 -1.113786,-0.30801 -0.420743,0.03263 -0.856177,0.246578 -3.173117,1.859753 -2.31694,1.613175 -6.515194,4.625511 -8.7648401,6.266007 -2.2496461,1.640497 -2.5505588,1.909108 -2.6834326,2.222138 -0.1328738,0.31303 -0.097403,0.6704 -0.079657,0.849185 0.017746,0.178784 0.01775,0.178784 0.1457544,0.272303 z"
       id="path951"
       inkscape:path-effect="#path-effect953"
       inkscape:original-d="m 2.9946149,36.035884 c 0.25622,0.18675 0.512139,0.37373 0.767752,0.56091 0.526513,-0.27871 1.0527,-0.55719 1.578592,-0.83545 2.403652,-1.46306 4.8379571,-2.9206 7.2564801,-4.38059 1.664654,-0.96496 3.328928,-1.92966 4.992944,-2.89416 0.620103,-0.45456 1.239875,-0.90889 1.859356,-1.36302 -0.01153,-0.49736 -0.02343,-0.99449 -0.0356,-1.49142 -0.167474,-0.23618 -0.335256,-0.47216 -0.503342,-0.70792 -0.405878,-0.14867 -0.812035,-0.29714 -1.218514,-0.44538 -0.43514,0.21374 -0.870573,0.42769 -1.306307,0.64185 -4.198121,3.01224 -8.3963731,6.02458 -12.5950141,9.03719 -0.300626,0.26841 -0.60154,0.53702 -0.902767,0.80586 0.03577,0.35716 0.07124,0.71453 0.106416,1.07213 z" />
  </g>
</svg>
