<?xml version="1.0" encoding="UTF-8" standalone="no"?>
<svg
   xmlns:dc="http://purl.org/dc/elements/1.1/"
   xmlns:cc="http://creativecommons.org/ns#"
   xmlns:rdf="http://www.w3.org/1999/02/22-rdf-syntax-ns#"
   xmlns:svg="http://www.w3.org/2000/svg"
   xmlns="http://www.w3.org/2000/svg"
   xmlns:sodipodi="http://sodipodi.sourceforge.net/DTD/sodipodi-0.dtd"
   xmlns:inkscape="http://www.inkscape.org/namespaces/inkscape"
   width="63mm"
   height="60mm"
   viewBox="0 0 63 60"
   version="1.1"
   id="svg8"
   inkscape:version="1.0 (4035a4fb49, 2020-05-01)"
   sodipodi:docname="osteopatia.svg">
  <defs
     id="defs2">
    <inkscape:path-effect
       only_selected="false"
       apply_with_weight="true"
       apply_no_weight="true"
       helper_size="0"
       steps="2"
       weight="33.333333"
       lpeversion="1"
       is_visible="true"
       id="path-effect1000"
       effect="bspline" />
    <inkscape:path-effect
       only_selected="false"
       apply_with_weight="true"
       apply_no_weight="true"
       helper_size="0"
       steps="2"
       weight="33.333333"
       lpeversion="1"
       is_visible="true"
       id="path-effect981"
       effect="bspline" />
    <inkscape:path-effect
       effect="bspline"
       id="path-effect962"
       is_visible="true"
       lpeversion="1"
       weight="33.333333"
       steps="2"
       helper_size="0"
       apply_no_weight="true"
       apply_with_weight="true"
       only_selected="false" />
    <inkscape:path-effect
       effect="bspline"
       id="path-effect958"
       is_visible="true"
       lpeversion="1"
       weight="33.333333"
       steps="2"
       helper_size="0"
       apply_no_weight="true"
       apply_with_weight="true"
       only_selected="false" />
    <inkscape:path-effect
       effect="bspline"
       id="path-effect954"
       is_visible="true"
       lpeversion="1"
       weight="33.333333"
       steps="2"
       helper_size="0"
       apply_no_weight="true"
       apply_with_weight="true"
       only_selected="false" />
    <inkscape:path-effect
       effect="bspline"
       id="path-effect950"
       is_visible="true"
       lpeversion="1"
       weight="33.333333"
       steps="2"
       helper_size="0"
       apply_no_weight="true"
       apply_with_weight="true"
       only_selected="false" />
    <inkscape:path-effect
       effect="bspline"
       id="path-effect946"
       is_visible="true"
       lpeversion="1"
       weight="33.333333"
       steps="2"
       helper_size="0"
       apply_no_weight="true"
       apply_with_weight="true"
       only_selected="false" />
    <inkscape:path-effect
       effect="bspline"
       id="path-effect913"
       is_visible="true"
       lpeversion="1"
       weight="33.333333"
       steps="2"
       helper_size="0"
       apply_no_weight="true"
       apply_with_weight="true"
       only_selected="false" />
    <inkscape:path-effect
       effect="bspline"
       id="path-effect907"
       is_visible="true"
       lpeversion="1"
       weight="33.333333"
       steps="2"
       helper_size="0"
       apply_no_weight="true"
       apply_with_weight="true"
       only_selected="false" />
  </defs>
  <sodipodi:namedview
     id="base"
     pagecolor="#ffffff"
     bordercolor="#666666"
     borderopacity="1.0"
     inkscape:pageopacity="0.0"
     inkscape:pageshadow="2"
     inkscape:zoom="0.7"
     inkscape:cx="196.18479"
     inkscape:cy="365.06052"
     inkscape:document-units="mm"
     inkscape:current-layer="layer1"
     inkscape:document-rotation="0"
     showgrid="false"
     inkscape:window-width="1920"
     inkscape:window-height="1051"
     inkscape:window-x="-9"
     inkscape:window-y="-9"
     inkscape:window-maximized="1" />
  <metadata
     id="metadata5">
    <rdf:RDF>
      <cc:Work
         rdf:about="">
        <dc:format>image/svg+xml</dc:format>
        <dc:type
           rdf:resource="http://purl.org/dc/dcmitype/StillImage" />
        <dc:title></dc:title>
      </cc:Work>
    </rdf:RDF>
  </metadata>
  <g
     inkscape:label="Layer 1"
     inkscape:groupmode="layer"
     id="layer1">
    <path
       style="fill:#000000;fill-opacity:1;stroke:#000000;stroke-width:0.264583px;stroke-linecap:butt;stroke-linejoin:miter;stroke-opacity:1"
       d="m 31.568997,13.790373 c 0.35053,0.454901 1.051359,1.364406 1.752199,2.268014 0.700841,0.903608 1.401656,1.801279 1.858385,2.378087 0.45673,0.576808 0.669336,0.832725 0.931196,1.078775 0.261859,0.24605 0.572892,0.482277 0.978443,0.757874 0.405551,0.275597 0.905572,0.590569 1.425295,0.899636 0.519724,0.309067 1.059122,0.612232 1.376087,0.79139 0.316965,0.179158 0.411423,0.23426 0.360186,0.277462 -0.05124,0.0432 -0.248088,0.0747 -0.637992,0.156948 -0.389903,0.08225 -0.980288,0.216971 -1.689148,0.397583 -0.70886,0.180613 -1.547196,0.409968 -1.999982,0.533991 -0.452785,0.124023 -0.523656,0.14371 -0.64761,0.120172 -0.123954,-0.02354 -0.301134,-0.09047 -0.608254,-0.28532 -0.30712,-0.194848 -0.744142,-0.517695 -1.391862,-1.234249 -0.647721,-0.716554 -1.506026,-1.826839 -1.978508,-2.441058 -0.472482,-0.61422 -0.559087,-0.732317 -0.616147,-0.803214 -0.05706,-0.0709 -0.08464,-0.09454 -0.246236,0.155415 -0.161593,0.24995 -0.456884,0.773595 -0.614187,1.029564 -0.157303,0.25597 -0.176988,0.244145 -0.277504,-0.419236 -0.100516,-0.66338 -0.281626,-1.978396 -0.379933,-2.637994 -0.09831,-0.659597 -0.114004,-0.663513 -0.248082,0.757938 -0.134078,1.421451 -0.38606,4.268028 -0.50807,5.705143 -0.12201,1.437115 -0.11413,1.464719 0.651774,2.104492 0.765904,0.639773 2.289593,1.891795 3.130195,2.586726 0.840602,0.694931 0.998091,0.832733 1.108293,0.95286 0.110203,0.120127 0.173187,0.222477 0.231782,0.398597 0.0586,0.17612 0.112786,0.425414 0.12062,0.675407 0.0078,0.249992 -0.03065,0.500406 -0.116123,0.738148 -0.08547,0.237743 -0.217898,0.462915 -0.347261,0.621643 -0.129364,0.158727 -0.255752,0.251114 -0.395176,0.324618 -0.139424,0.0735 -0.291984,0.128145 -0.473854,0.164513 -0.181869,0.03637 -0.389989,0.05416 -0.602761,0.04713 -0.212771,-0.007 -0.417801,-0.03853 -0.624226,-0.121379 -0.206425,-0.08285 -0.411155,-0.216709 -1.454556,-1.075026 -1.043401,-0.858317 -2.92537,-2.44106 -3.903835,-3.301312 -0.978464,-0.860252 -1.053271,-0.998055 -1.09664,-1.521742 -0.04337,-0.523687 -0.05523,-1.44105 -0.0278,-2.466732 0.02744,-1.025682 0.0946,-2.171385 0.193028,-3.427388 0.09843,-1.256002 0.228354,-2.626139 0.273802,-3.321104 0.04545,-0.694964 0.0061,-0.714651 -0.114055,-0.362757 -0.120131,0.351893 -0.321207,1.077347 -0.59485,2.079391 -0.273642,1.002044 -0.620114,2.281625 -0.964629,3.413581 -0.344515,1.131957 -0.687049,2.116252 -0.8839,2.807279 -0.19685,0.691028 -0.248034,1.088684 -0.253908,1.460789 -0.0059,0.372105 0.0335,0.718576 0.157626,1.015838 0.124129,0.297262 0.332799,0.545304 0.596626,0.791355 0.263826,0.246051 0.582736,0.490155 0.736279,0.631327 0.153542,0.141171 0.141404,0.181628 -0.02577,0.199264 -0.167178,0.01764 -0.490028,0.0137 -1.881872,0.01567 -1.391844,0.002 -3.852577,0.0098 -5.102086,0.0081 -1.24951,-0.0018 -1.289967,-0.0139 -1.272413,-0.693009 0.01755,-0.679112 0.09236,-2.025626 0.164394,-2.768266 0.07203,-0.742639 0.144475,-0.887524 0.782322,-2.117942 0.637847,-1.230418 1.842622,-3.549414 2.921439,-5.628301 1.078816,-2.078887 2.031612,-3.917547 2.624178,-5.006222 0.592565,-1.088676 0.824859,-1.427274 1.07886,-1.693087 0.254001,-0.265813 0.529604,-0.458734 0.864349,-0.594572 0.334745,-0.135838 0.728462,-0.214581 1.055303,-0.2361955 0.32684,-0.021614 0.586693,0.013821 0.864285,0.096554 0.277592,0.08273 0.57288,0.212661 1.448925,0.734381 0.876046,0.52172 2.332805,1.435148 3.086767,1.921455 0.753961,0.486307 0.805124,0.545341 0.830594,0.57473 0.02547,0.02939 0.02547,0.02937 0.375998,0.484276 z"
       id="path948"
       inkscape:path-effect="#path-effect950"
       inkscape:original-d="m 31.218468,13.335472 c 0.7011,0.90977 1.40193,1.819275 2.10249,2.728516 0.70112,0.897975 1.40193,1.79565 2.1025,2.69308 0.21288,0.256191 0.42549,0.512106 0.63783,0.767765 0.31132,0.236503 0.62235,0.472734 0.93313,0.708705 0.50031,0.315251 1.00033,0.630224 1.5001,0.944941 0.53967,0.303437 1.07907,0.6066 1.61821,0.909505 0.0948,0.05539 0.18925,0.110506 0.28348,0.165365 -0.19661,0.03176 -0.39346,0.06326 -0.59059,0.09449 -0.58246,0.134133 -1.17304,0.267997 -1.75995,0.401601 -0.83052,0.228629 -1.66913,0.456985 -2.5041,0.68508 -0.0706,0.01995 -0.14147,0.03964 -0.21261,0.05906 -0.17691,-0.06667 -0.35409,-0.133604 -0.53153,-0.2008 -0.43678,-0.322596 -0.8738,-0.645446 -1.3111,-0.968566 -0.85807,-1.110062 -1.71638,-2.220343 -2.57496,-3.330913 -0.0864,-0.117856 -0.17298,-0.235971 -0.25986,-0.354354 -0.0273,-0.02336 -0.0549,-0.04698 -0.0827,-0.07087 -0.29504,0.523928 -0.59033,1.047573 -0.88589,1.570964 -0.0194,-0.01156 -0.0391,-0.02336 -0.059,-0.03544 -0.18086,-1.314804 -0.36197,-2.62982 -0.54334,-3.945128 -0.0155,-0.0037 -0.0312,-0.0076 -0.0473,-0.0118 -0.25173,2.846954 -0.5037,5.693532 -0.75596,8.5399 0.008,0.02782 0.016,0.05539 0.0236,0.08268 1.52401,1.252334 3.0477,2.504355 4.57115,3.756136 0.15776,0.138073 0.31525,0.275873 0.47247,0.413411 0.0633,0.102637 0.12626,0.205002 0.18899,0.307107 0.0546,0.250135 0.10878,0.499432 0.16277,0.748787 -0.0382,0.250724 -0.0767,0.501136 -0.11547,0.751306 -0.13217,0.225451 -0.2646,0.450623 -0.3973,0.675543 -0.12612,0.09265 -0.25251,0.185035 -0.37916,0.277157 -0.1523,0.05491 -0.30486,0.109551 -0.4577,0.16393 -0.21099,0.01832 -0.41911,0.03611 -0.63377,0.05417 -0.21094,-0.03219 -0.41597,-0.06369 -0.62435,-0.09593 -0.20448,-0.133604 -0.40921,-0.267467 -0.61421,-0.4016 -1.88178,-1.582542 -3.76375,-3.165284 -5.64602,-4.748324 -0.07454,-0.137543 -0.149352,-0.275343 -0.224422,-0.413411 -0.01156,-0.909259 -0.02336,-1.826622 -0.03544,-2.740329 0.0672,-1.137624 0.134131,-2.283341 0.2008,-3.42541 0.130196,-1.369925 0.260123,-2.740062 0.389787,-4.11049 -0.03911,-0.01942 -0.07848,-0.03911 -0.118118,-0.05906 -0.196601,0.724733 -0.401336,1.449173 -0.602398,2.173361 -0.34622,1.279898 -0.692692,2.559479 -1.039437,3.838821 -0.342281,0.984597 -0.684815,1.968892 -1.02762,2.952938 -0.05092,0.397936 -0.102106,0.795592 -0.153554,1.192988 0.03964,0.346749 0.07901,0.693221 0.118118,1.039434 0.208942,0.248317 0.417613,0.496358 0.626023,0.744141 0.319188,0.244379 0.638098,0.488484 0.956752,0.732329 -0.0076,0.03964 -0.02336,0.07901 -0.03544,0.118118 -0.322596,-0.0037 -0.645446,-0.0076 -0.968563,-0.0118 -2.460567,0.0081 -4.9213,0.01601 -7.382348,0.02363 -0.03911,-0.0076 -0.07848,-0.02336 -0.118118,-0.03544 0.07508,-1.3463 0.149881,-2.692815 0.224425,-4.039618 0.07114,-0.137544 0.142004,-0.283218 0.212611,-0.425225 1.205087,-2.318822 2.409862,-4.637818 3.614396,-6.957124 0.953101,-1.838468 1.905894,-3.677129 2.858445,-5.516089 0.232568,-0.338346 0.464862,-0.676944 0.696894,-1.015812 0.275878,-0.192664 0.551481,-0.385585 0.826822,-0.578776 0.393999,-0.07848 0.787715,-0.157226 1.181177,-0.2362363 0.260128,0.0357 0.51998,0.07114 0.779576,0.1063073 0.295564,0.130196 0.590852,0.260123 0.885881,0.389787 1.457071,0.913725 2.913831,1.827152 4.370351,2.740329 0.0515,0.05932 0.10263,0.118383 0.15355,0.177176 z"
       sodipodi:nodetypes="sccccccccccccccccccccccccccccccccccccccccccccccccccccccccccccss" />
    <path
       style="fill:#000000;fill-opacity:1;stroke:#000000;stroke-width:0.264583px;stroke-linecap:butt;stroke-linejoin:miter;stroke-opacity:1"
       d="m 6.8352017,30.80506 c 0.952947,0 2.858577,0 4.9729043,0 2.114328,0 4.437259,0 6.878381,0 2.441123,0 5.000284,0 6.304877,0.0016 1.304594,0.0016 1.354554,0.0047 1.627317,0.226268 0.272764,0.22161 0.768316,0.661482 1.210991,1.034539 0.442675,0.373056 0.832436,0.679296 1.225002,0.960476 0.392566,0.281179 0.787887,0.537304 1.072684,0.693428 0.284797,0.156123 0.455773,0.211276 0.653445,0.269735 0.197673,0.05846 0.420384,0.119703 0.679277,0.147501 0.258893,0.0278 0.554003,0.02224 0.829586,-0.01676 0.275583,-0.039 0.531703,-0.111381 0.810084,-0.217179 0.27838,-0.105798 0.579059,-0.245 0.82123,-0.386973 0.242171,-0.141973 0.425917,-0.286744 0.606857,-0.459336 0.180941,-0.172592 0.359119,-0.373041 0.542851,-0.631928 0.183732,-0.258887 0.373046,-0.576265 0.492833,-0.896783 0.119787,-0.320518 0.16977,-0.642626 0.197625,-0.987874 0.02786,-0.345248 0.03342,-0.712652 6.34e-4,-1.057982 -0.03279,-0.34533 -0.10634,-0.679154 -0.224781,-0.983333 -0.11844,-0.304179 -0.287916,-0.592288 -0.452135,-0.812256 -0.16422,-0.219969 -0.32569,-0.375871 -0.548403,-0.559639 -0.222712,-0.183768 -0.506681,-0.395352 -0.652948,-0.515003 -0.146267,-0.119651 -0.154639,-0.14751 0.06117,-0.220086 0.215805,-0.07258 0.655675,-0.189504 1.406421,-0.402387 0.750745,-0.212883 1.832856,-0.527678 3.254144,-0.900744 1.421288,-0.373066 3.191908,-0.807369 4.355644,-1.108052 1.163735,-0.300683 1.720526,-0.467721 2.193868,-0.551218 0.473342,-0.0835 0.863102,-0.0835 1.225059,-0.02776 0.361957,0.05573 0.696037,0.167093 0.996713,0.31749 0.300676,0.150397 0.567936,0.339708 0.824038,0.584745 0.256103,0.245038 0.501096,0.545708 0.684768,0.935493 0.183672,0.389784 0.306167,0.868635 0.439809,1.358635 0.133642,0.49 0.278412,0.991121 0.378623,1.386451 0.10021,0.395329 0.15589,0.684873 0.189274,0.963268 0.03338,0.278395 0.04452,0.545657 0.0409,0.677824 -0.0036,0.132167 -0.02224,0.12947 -0.19299,0.126134 -0.170755,-0.0033 -0.493605,-0.0073 -1.033005,-0.0112 -0.539401,-0.0039 -1.295362,-0.0079 -1.69114,-0.002 -0.395778,0.0059 -0.431183,0.02162 -0.698994,0.322868 -0.267811,0.301245 -0.767834,0.887882 -1.025734,1.210824 -0.2579,0.322941 -0.273629,0.381985 -0.214394,0.419317 0.05924,0.03733 0.193096,0.05308 0.956928,0.06685 0.763833,0.01376 2.157583,0.02557 3.645882,0.02756 1.488298,0.002 3.086788,-0.0059 3.976634,0.01774 0.889846,0.02367 1.078835,0.07879 1.267805,0.193054 0.188969,0.114262 0.377952,0.287495 0.511749,0.468644 0.133798,0.181148 0.212541,0.370135 0.259742,0.614641 0.0472,0.244507 0.06289,0.542908 0.04317,0.814541 -0.01973,0.271634 -0.07485,0.51573 -0.19688,0.732182 -0.122034,0.216452 -0.311021,0.40544 -0.503871,0.535342 -0.192851,0.129902 -0.38971,0.200771 -1.114124,0.244108 -0.724414,0.04334 -1.976434,0.05909 -4.299442,0.05909 -2.323008,2e-6 -5.716858,-0.01575 -7.459065,-0.03932 -1.742208,-0.02357 -1.832759,-0.05507 -2.013878,-0.153464 -0.18112,-0.09839 -0.452789,-0.263758 -0.643293,-0.438041 -0.190504,-0.174283 -0.301774,-0.361058 -0.392381,-0.583513 -0.09061,-0.222455 -0.161477,-0.482312 -0.167448,-0.740262 -0.006,-0.257949 0.05308,-0.51387 0.218461,-0.807281 0.165377,-0.293412 0.437044,-0.624138 1.15167,-1.439167 0.714627,-0.815028 1.872156,-2.114294 2.454855,-2.789422 0.5827,-0.675128 0.590569,-0.726331 0.433133,-0.663468 -0.157436,0.06286 -0.480286,0.240035 -1.129949,0.623924 -0.649663,0.38389 -1.626082,0.974468 -2.450949,1.492223 -0.824867,0.517756 -1.498127,0.962658 -1.921413,1.271754 -0.423286,0.309096 -0.596525,0.482333 -0.769781,0.685124 -0.173257,0.202792 -0.346495,0.435087 -0.470524,0.704859 -0.124029,0.269772 -0.198837,0.576882 -0.240154,0.864344 -0.04132,0.287462 -0.04918,0.555177 -0.0393,0.771747 0.0099,0.21657 0.03744,0.381937 0.0512,0.478379 0.01376,0.09644 0.01376,0.124012 -0.226285,0.141593 -0.240042,0.01758 -0.720381,0.02546 -1.48817,0.08845 -0.76779,0.06299 -1.82295,0.181102 -3.065155,0.248048 -1.242205,0.06695 -2.671395,0.0827 -4.584922,0.08861 -1.913527,0.0059 -4.31914,0.002 -6.933503,-0.002 -2.614364,-0.0039 -5.441254,-0.0079 -7.585101,-0.01773 -2.143848,-0.0098 -3.6045384,-0.02559 -4.6616992,-0.03151 -1.0571607,-0.0059 -1.7107315,-0.002 -2.1595533,-0.05506 C 5.0832398,35.112644 4.8391358,35.002403 4.6323865,34.843015 4.4256373,34.683627 4.2563376,34.474957 4.132254,34.262358 4.0081705,34.04976 3.9294277,33.833215 3.8742713,33.626498 c -0.055156,-0.206717 -0.086656,-0.403575 -0.08079,-0.651665 0.00587,-0.248089 0.049174,-0.547312 0.153516,-0.801362 0.104342,-0.25405 0.2697029,-0.462721 0.5020383,-0.679304 0.2323354,-0.216584 0.5315598,-0.441002 0.7816825,-0.557141 0.2501228,-0.11614 0.4509209,-0.124016 0.5511944,-0.12795 0.1002736,-0.0039 0.1003426,-0.004 1.0532896,-0.004 z"
       id="path952"
       inkscape:path-effect="#path-effect954"
       inkscape:original-d="m 5.8822547,30.80506 c 1.905894,2.65e-4 3.811524,2.65e-4 5.7168893,0 2.32329,2.65e-4 4.646221,2.65e-4 6.968937,0 2.559529,2.65e-4 5.11869,2.65e-4 7.677639,0 0.05022,0.0034 0.10018,0.0065 0.149874,0.0093 0.495837,0.440153 0.991388,0.880026 1.486684,1.319641 0.39004,0.306518 0.7798,0.61276 1.16931,0.91874 0.39561,0.256405 0.79093,0.512532 1.186,0.7684 0.17289,0.06151 0.34549,0.111628 0.51784,0.167045 0.223,0.06151 0.44571,0.122761 0.66818,0.183747 0.29537,-0.0053 0.59048,-0.01087 0.88533,-0.01669 0.2564,-0.07212 0.51252,-0.144505 0.76839,-0.217157 0.30095,-0.13894 0.60163,-0.27814 0.90204,-0.417607 0.18401,-0.144511 0.36776,-0.289277 0.55124,-0.434314 0.17845,-0.200192 0.35663,-0.40064 0.53454,-0.601355 0.18958,-0.317125 0.3789,-0.6345 0.56795,-0.952149 0.0559,-0.322691 0.10049,-0.645636 0.15034,-0.968851 0.0114,-0.367239 0.0114,-0.734727 0.0167,-1.102487 -0.0721,-0.322694 -0.1445,-0.656772 -0.21715,-0.985557 -0.16678,-0.278146 -0.33383,-0.567682 -0.50113,-0.851921 -0.16122,-0.155647 -0.32269,-0.31155 -0.48443,-0.467723 -0.28371,-0.211328 -0.56768,-0.42291 -0.85192,-0.634764 -0.008,-0.02757 -0.0164,-0.05542 -0.0251,-0.08352 0.44016,-0.116668 0.88003,-0.233595 1.31965,-0.350793 1.06101,-0.311554 2.14399,-0.623363 3.21559,-0.935442 1.77096,-0.434057 3.54158,-0.868362 5.31198,-1.302938 0.55709,-0.166783 1.11388,-0.333822 1.67043,-0.501131 0.39004,2.64e-4 0.7798,2.64e-4 1.16931,0 0.33435,0.11163 0.66843,0.222988 1.00226,0.334086 0.26754,0.189585 0.5348,0.378897 0.8018,0.567947 0.24527,0.30095 0.49026,0.601623 0.735,0.902036 0.12276,0.479131 0.24526,0.95798 0.36749,1.436574 0.14504,0.501404 0.28981,1.002525 0.43432,1.503391 0.0559,0.289812 0.11162,0.579348 0.16704,0.868625 0.0114,0.267541 0.0225,0.534805 0.0334,0.801809 -0.0184,-0.0024 -0.037,-0.0052 -0.0559,-0.0081 -0.32259,-0.0037 -0.64544,-0.0076 -0.96856,-0.0118 -0.7557,2.65e-4 -1.51164,-0.0076 -2.26786,-0.0118 -0.0352,0.01601 -0.0706,0.03176 -0.1063,0.04725 -0.49978,0.586925 -0.9998,1.173564 -1.5001,1.75995 -0.0155,0.05933 -0.0312,0.118382 -0.0472,0.177178 0.13413,0.01601 0.26799,0.03176 0.4016,0.04725 1.39408,0.01206 2.78783,0.02389 4.18136,0.03543 1.58307,-0.0076 3.18156,-0.01548 4.77195,-0.02363 0.18925,0.05539 0.37824,0.110508 0.56696,0.165365 0.18926,0.173505 0.37824,0.346741 0.56697,0.519718 0.079,0.189256 0.15775,0.37824 0.23623,0.566962 0.0318,0.299503 0.0318,0.598729 0.0472,0.897695 -0.0549,0.244379 -0.10998,0.488484 -0.16537,0.732329 -0.18872,0.189257 -0.37771,0.378241 -0.56696,0.566963 -0.1966,0.07114 -0.39346,0.142007 -0.59059,0.212613 -1.25181,0.01601 -2.50383,0.03176 -3.75614,0.04725 -3.39371,-0.01548 -6.78756,-0.03123 -10.18173,-0.04725 -0.0903,-0.03123 -0.18085,-0.06273 -0.27167,-0.0945 -0.27141,-0.165102 -0.54308,-0.330464 -0.81501,-0.496093 -0.10605,-0.184791 -0.22022,-0.369838 -0.33073,-0.555152 -0.0706,-0.259598 -0.14148,-0.519453 -0.21261,-0.779576 0.0593,-0.255662 0.11838,-0.511577 0.17717,-0.767765 0.27194,-0.33047 0.54361,-0.661194 0.81501,-0.992188 1.15784,-1.299054 2.31537,-2.598319 3.47266,-3.897878 0.008,-0.05092 0.016,-0.102103 0.0236,-0.153554 -0.3226,0.177446 -0.64545,0.354618 -0.96857,0.531529 -0.97619,0.590865 -1.95261,1.181442 -2.92931,1.771764 -0.67302,0.445183 -1.34628,0.890085 -2.01981,1.334728 -0.17298,0.173508 -0.34622,0.346744 -0.51972,0.519718 -0.17298,0.232566 -0.34622,0.46486 -0.51972,0.696894 -0.0745,0.307377 -0.14935,0.614476 -0.22442,0.921316 -0.008,0.268005 -0.0155,0.535731 -0.0236,0.803201 0.0278,0.165632 0.0554,0.330994 0.0827,0.496094 -0.004,0.02782 2.7e-4,0.05539 0,0.08268 -0.48008,0.0082 -0.96042,0.01601 -1.44103,0.02363 -1.05494,0.118385 -2.1101,0.2365 -3.16555,0.354353 -1.42899,0.01601 -2.85818,0.03176 -4.287667,0.04725 -2.39757,-0.0037 -4.803183,-0.0076 -7.205171,-0.0118 -2.826739,-0.0037 -5.653629,-0.0076 -8.48084,-0.01183 -1.460487,-0.01548 -2.9211773,-0.03123 -4.3821613,-0.04725 -0.653333,0.0042 -1.306904,0.0081 -1.960753,0.0118 -0.243851,-0.10998 -0.487955,-0.220221 -0.732327,-0.33073 -0.169043,-0.208412 -0.338342,-0.417083 -0.507908,-0.626022 -0.07848,-0.216289 -0.157226,-0.432832 -0.236233,-0.649645 -0.03123,-0.196604 -0.06273,-0.393462 -0.0945,-0.59059 0.04358,-0.298971 0.08688,-0.598196 0.129929,-0.897691 0.165635,-0.208415 0.330994,-0.417087 0.496094,-0.626026 0.299503,-0.224162 0.598728,-0.448579 0.897694,-0.673269 0.201067,-0.0076 0.401865,-0.01548 0.602401,-0.02363 z" />
    <path
       style="fill:#000000;fill-opacity:1;stroke:#000000;stroke-width:0.264583px;stroke-linecap:butt;stroke-linejoin:miter;stroke-opacity:1"
       d="m 5.2347094,37.492484 c 1.1714647,0.002 3.5141287,0.0059 6.3489836,0.0079 2.834854,0.002 6.161767,0.002 9.226945,0.002 3.065178,0 5.868446,0 8.766293,0 2.897847,0 5.890097,0 9.689592,0 3.799495,0 8.405985,0 11.914105,-0.002 3.50812,-0.002 5.92554,-0.0059 7.260294,0.02956 1.334755,0.03548 1.590657,0.110283 1.769812,0.17529 0.179155,0.06501 0.281524,0.120129 0.411419,0.236332 0.129896,0.116204 0.287379,0.293373 0.389663,0.48041 0.102283,0.187038 0.149444,0.383543 0.17308,0.570882 0.02363,0.187338 0.02365,0.364182 0.002,0.557075 -0.02167,0.192893 -0.06498,0.401583 -0.135861,0.610218 -0.07088,0.208635 -0.169296,0.417282 -0.303118,0.584548 -0.133823,0.167266 -0.303112,0.293248 -0.472347,0.375928 -0.169234,0.08268 -0.338722,0.122097 -0.508022,0.16147 0,0 0,0 0,0 -0.02363,1.385912 -0.04727,2.772084 -0.06105,4.189512 -0.01378,1.417427 -0.01771,2.866307 -0.01968,4.382164 -0.002,1.515857 -0.002,3.098605 -0.002,3.93921 0,0.840605 0,0.939025 -0.05769,1.167153 -0.05769,0.228128 -0.17072,0.578908 -0.340011,0.893826 -0.16929,0.314918 -0.393709,0.590519 -0.686055,0.867334 -0.292345,0.276816 -0.65647,0.557828 -0.937916,0.725151 -0.281447,0.167324 -0.482232,0.22244 -0.706649,0.271657 -0.224417,0.04922 -0.472458,0.09251 -0.73424,0.09648 -0.261783,0.004 -0.537399,-0.03146 -0.777556,-0.1003 -0.240157,-0.06884 -0.444889,-0.171203 -0.639825,-0.332569 -0.194935,-0.161365 -0.379984,-0.381847 -0.49623,-0.635796 -0.116246,-0.25395 -0.163491,-0.541363 -0.1655,-0.832762 -0.002,-0.291398 0.0413,-0.586687 0.171238,-0.864364 0.129938,-0.277676 0.346479,-0.537526 0.622199,-0.714754 0.275721,-0.177229 0.610366,-0.271733 0.777611,-0.318963 0.167245,-0.04723 0.167245,-0.04723 0.161329,-1.147569 -0.0059,-1.100339 -0.01775,-3.301193 -0.02758,-5.403694 -0.0098,-2.102501 -0.01773,-4.122269 -0.02367,-5.12837 -0.0059,-1.0061 -0.0099,-1.0061 -0.889731,-0.990354 -0.879798,0.01575 -2.635768,0.04724 -5.285574,0.04725 -2.649807,3e-6 -6.193257,-0.03149 -8.945418,-0.04331 -2.752162,-0.01181 -4.712872,-0.0039 -7.175651,-0.0039 -2.462779,10e-7 -5.427479,-0.0079 -8.555657,-0.01378 -3.128178,-0.0059 -6.419654,-0.0098 -9.347026,-0.01181 -2.927373,-0.002 -5.490473,-0.002 -6.7799212,-0.002 -1.2894481,0 -1.3051981,0 -1.3151768,0.754131 -0.00998,0.75413 -0.013915,2.262068 -0.00998,4.36458 0.00394,2.102512 0.015752,4.799492 0.031621,6.159827 0.015869,1.360335 0.03554,1.383951 0.1123651,1.410418 0.076825,0.02647 0.2106936,0.05597 0.3790072,0.117016 0.1683137,0.06105 0.3710867,0.153573 0.5462507,0.294405 0.175164,0.140832 0.3228041,0.329813 0.3965151,0.424165 0.073711,0.09435 0.073711,0.09435 0.1052751,0.171288 0.031564,0.07694 0.094559,0.230488 0.1338803,0.393871 0.039321,0.163383 0.05507,0.336613 0.055046,0.503923 -2.42e-5,0.16731 -0.015774,0.32873 -0.0591,0.513746 -0.043326,0.185016 -0.1141956,0.393685 -0.2322781,0.568807 -0.1180825,0.175121 -0.2834457,0.31686 -0.5058485,0.446772 -0.2224028,0.129912 -0.5019391,0.248029 -0.7833898,0.309054 -0.2814507,0.06103 -0.5728019,0.06501 -0.9094197,0.03551 C 6.4534582,57.75553 6.0676107,57.692534 5.7043711,57.520185 5.3411315,57.347836 4.996666,57.06276 4.7308725,56.802926 4.465079,56.543093 4.2760942,56.306863 4.1224784,56.019453 3.9688626,55.732042 3.8507497,55.393451 3.7699966,55.039078 3.6892435,54.684705 3.6459351,54.314616 3.6124528,53.220028 3.5789704,52.125441 3.5553475,50.306469 3.5435341,48.180295 3.5317207,46.05412 3.5317207,43.629098 3.5317207,42.414217 c 0,-1.21488 0,-1.21488 -0.089926,-1.237608 C 3.3518698,41.153881 3.1742057,41.108977 3.0039658,41.023516 2.8337259,40.938056 2.6802179,40.816552 2.5488412,40.665622 2.4174646,40.514693 2.3104879,40.335976 2.2389666,40.115955 2.1674453,39.895934 2.1315345,39.634654 2.1245443,39.375256 c -0.00699,-0.259397 0.015003,-0.516828 0.082264,-0.732057 0.067262,-0.21523 0.1798073,-0.388067 0.3135679,-0.541565 0.1337605,-0.153498 0.2886594,-0.287558 0.4791239,-0.38318 0.1904646,-0.09562 0.4163185,-0.152769 0.5995749,-0.184348 0.1832564,-0.03158 0.3238437,-0.03763 0.3940111,-0.04064 0.070167,-0.003 0.070158,-0.0029 1.2416231,-9.78e-4 z"
       id="path956"
       inkscape:path-effect="#path-effect958"
       inkscape:original-d="m 4.0632447,37.490512 c 2.342929,0.0042 4.685593,0.0081 7.0279943,0.01183 3.327308,0.0042 6.654221,2.65e-4 9.980933,0 2.803644,2.65e-4 5.606912,2.65e-4 8.409976,0 2.99263,2.65e-4 5.98488,2.65e-4 8.97693,0 4.60694,2.65e-4 9.21343,2.65e-4 13.81975,0 2.40992,-0.0037 4.82734,-0.0076 7.24061,-0.01183 0.25619,0.07507 0.51209,0.149878 0.76776,0.224425 0.10264,0.05539 0.20501,0.110508 0.30711,0.165365 0.15776,0.177441 0.31524,0.354613 0.47247,0.531528 0.0475,0.197131 0.0947,0.393627 0.14174,0.590588 2.8e-4,0.177768 2.9e-4,0.354612 4e-5,0.53153 -0.043,0.208941 -0.0864,0.417613 -0.12993,0.626022 -0.0982,0.208944 -0.19659,0.417603 -0.29529,0.626023 -0.16904,0.126263 -0.33833,0.252244 -0.50791,0.377975 -0.16904,0.03964 -0.5079,0.118119 -0.5079,0.118119 v 0 c 0,0 -0.047,2.772089 -0.0709,4.157737 -0.004,1.449202 -0.008,2.898082 -0.0118,4.346726 -0.004,1.58307 2.7e-4,3.165818 0,4.748328 0.004,0.0987 2.7e-4,0.19712 0,0.29529 -0.11391,0.35856 -0.22809,0.70897 -0.34254,1.06306 -0.22416,0.27588 -0.44858,0.55148 -0.67327,0.82682 -0.36197,0.27588 -0.72419,0.55936 -1.08668,0.83864 -0.20054,0.0554 -0.40133,0.1105 -0.6024,0.16536 -0.24779,0.0436 -0.49583,0.0869 -0.74414,0.12989 -0.27534,-0.0352 -0.55096,-0.0706 -0.82682,-0.10629 -0.20448,-0.1021 -0.40921,-0.20447 -0.61421,-0.3071 -0.18479,-0.22023 -0.36984,-0.44071 -0.55516,-0.66146 -0.047,-0.28716 -0.0942,-0.57458 -0.14174,-0.86226 0.0436,-0.29503 0.0869,-0.59032 0.12993,-0.88588 0.21682,-0.2596 0.43336,-0.51945 0.64965,-0.77958 0.33494,-0.0943 0.6696,-0.18875 1.004,-0.28353 2.6e-4,2.6e-4 2.6e-4,2.6e-4 0,0 -0.0115,-2.20068 -0.0234,-4.401533 -0.0355,-6.602696 -0.008,-2.003837 -0.0155,-4.023607 -0.0236,-6.035807 -0.004,2.64e-4 -0.008,2.64e-4 -0.0118,0 -1.75579,0.03176 -3.51176,0.06326 -5.26804,0.09449 -3.54334,-0.03123 -7.08679,-0.06273 -10.63058,-0.09449 -1.96053,0.0081 -3.92124,0.01601 -5.88226,0.02362 -2.96454,-0.0076 -5.92924,-0.01548 -8.894251,-0.02362 -3.291344,-0.0037 -6.58282,-0.0076 -9.874628,-0.01181 -2.562937,2.65e-4 -5.126037,2.65e-4 -7.6894533,0 -0.01548,2.65e-4 -0.03123,2.65e-4 -0.04725,0 -0.0037,1.508262 -0.0076,3.0162 -0.01181,4.523903 0.0081,2.697336 0.02389,5.394299 0.03544,8.09105 0.01995,0.0239 0.03964,0.0475 0.05906,0.0709 0.134136,0.0298 0.268005,0.0593 0.4016,0.0885 0.203022,0.0928 0.405802,0.18531 0.608306,0.27757 0.147911,0.18926 0.295553,0.37824 0.44294,0.56697 2.65e-4,2.7e-4 2.65e-4,2.7e-4 0,0 0.06326,0.15382 0.126257,0.30737 0.188989,0.46066 0.01601,0.17351 0.03176,0.34674 0.04725,0.51972 -0.01548,0.16169 -0.03123,0.32311 -0.04725,0.48428 -0.07061,0.20894 -0.141477,0.41761 -0.212612,0.62602 -0.165103,0.14201 -0.330465,0.28375 -0.496094,0.42522 -0.279286,0.11839 -0.558825,0.2365 -0.838634,0.35436 -0.283224,0.004 -0.574575,0.008 -0.862259,0.0118 -0.385594,-0.0627 -0.771436,-0.12573 -1.157552,-0.18899 -0.342283,-0.27929 -0.684817,-0.5667 -1.027623,-0.85045 -0.188727,-0.23597 -0.377711,-0.4722 -0.566964,-0.7087 -0.117855,-0.33835 -0.23597,-0.67694 -0.354352,-1.01581 -0.04305,-0.36985 -0.08635,-0.73994 -0.12993,-1.11031 -0.02336,-1.81878 -0.04698,-3.637752 -0.07087,-5.457027 2.65e-4,-2.433071 2.65e-4,-4.858093 0,-7.287854 2.65e-4,2.65e-4 2.65e-4,2.65e-4 0,0 -0.179898,-0.04527 -0.357563,-0.09017 -0.540475,-0.136602 -0.157547,-0.124645 -0.311055,-0.246149 -0.466984,-0.369625 -0.106719,-0.178464 -0.213696,-0.357181 -0.320944,-0.536175 -0.03565,-0.261032 -0.07156,-0.522312 -0.107737,-0.783875 0.02226,-0.257177 0.04425,-0.514608 0.06598,-0.772309 0.112816,-0.172582 0.225362,-0.345419 0.337649,-0.51853 0.155171,-0.133803 0.31007,-0.267863 0.464711,-0.402193 0.226124,-0.05688 0.451977,-0.114031 0.677569,-0.171444 0.140853,-0.0058 0.281441,-0.01183 0.421764,-0.01814 z"
       sodipodi:nodetypes="scccccccccccccccccccccccccccccccccccccccccccccccccccccccccccccccccccccccccss" />
    <path
       style="fill:#000000;fill-opacity:1;stroke:#000000;stroke-width:0.264583px;stroke-linecap:butt;stroke-linejoin:miter;stroke-opacity:1"
       d="m 28.404331,6.3083537 c 0.0011,-0.5669446 0.07103,-1.1214001 0.272646,-1.6378968 0.201613,-0.5164967 0.53491,-0.9947909 0.970191,-1.3864126 0.435282,-0.3916217 0.972352,-0.6964044 1.491488,-0.8631075 0.519136,-0.1667031 1.020116,-0.1953361 1.498793,-0.1933501 0.478676,0.00199 0.934976,0.034554 1.446643,0.2392469 0.511668,0.2046926 1.078616,0.5813055 1.491829,1.0042871 0.413214,0.4229815 0.672777,0.8921657 0.834337,1.3943057 0.161559,0.50214 0.225231,1.0371995 0.226494,1.5814097 0.0013,0.5442101 -0.05982,1.0976028 -0.220644,1.5685061 -0.160823,0.4709032 -0.421347,0.8594366 -0.788854,1.2379924 -0.367507,0.3785557 -0.842035,0.7471784 -1.374091,0.9632564 -0.532056,0.216078 -1.121796,0.279585 -1.71014,0.271048 -0.588344,-0.0085 -1.167314,-0.08808 -1.679978,-0.273453 C 30.350381,10.028815 29.908081,9.738031 29.532352,9.3571191 29.156623,8.9762072 28.847617,8.5051089 28.659215,7.9798633 28.470814,7.4546177 28.403209,6.8752984 28.404331,6.3083537 Z"
       id="path960"
       inkscape:path-effect="#path-effect962"
       inkscape:original-d="m 28.335568,6.2956667 c 0.0702,-0.554218 0.14009,-1.108676 0.20974,-1.663433 0.33358,-0.478066 0.66688,-0.956358 0.99994,-1.434954 0.53738,-0.304543 1.07445,-0.609327 1.6113,-0.914398 0.50126,-0.02837 1.00224,-0.057 1.50296,-0.0859 0.4566,0.03283 0.9129,0.0654 1.36897,0.09771 0.56724,0.376897 1.13419,0.753507 1.7009,1.129876 0.25985,0.469483 0.51941,0.938669 0.77873,1.407626 0.0639,0.53535 0.12761,1.070405 0.19102,1.605212 -0.0608,0.553675 -0.12191,1.107065 -0.18326,1.660218 -0.26028,0.388825 -0.5208,0.777361 -0.78161,1.165657 -0.47428,0.368907 -0.94881,0.7375263 -1.42363,1.1059043 -0.58949,0.06377 -1.17923,0.127281 -1.76924,0.190524 -0.58674,-0.08038 -1.16571,-0.159927 -1.74898,-0.24029 -0.44207,-0.290538 -0.88437,-0.5813233 -1.32696,-0.8723903 -0.30876,-0.470864 -0.61777,-0.94196 -0.92706,-1.413357 -0.0673,-0.579086 -0.13495,-1.1584 -0.20282,-1.738005 z"
       sodipodi:nodetypes="ccccccccccccccccc" />
    <path
       sodipodi:nodetypes="ccccccccccccccccc"
       inkscape:original-d="m 50.621578,23.277757 c 0.0702,-0.554218 0.14009,-1.108676 0.20974,-1.663433 0.33358,-0.478066 0.66688,-0.956358 0.99994,-1.434954 0.53738,-0.304543 1.07445,-0.609327 1.6113,-0.914398 0.50126,-0.02837 1.00224,-0.057 1.50296,-0.0859 0.4566,0.03283 0.9129,0.0654 1.36897,0.09771 0.56724,0.376897 1.13419,0.753507 1.7009,1.129876 0.25985,0.469483 0.51941,0.938669 0.77873,1.407626 0.0639,0.53535 0.12761,1.070405 0.19102,1.605212 -0.0608,0.553675 -0.12191,1.107065 -0.18326,1.660218 -0.26028,0.388825 -0.5208,0.777361 -0.78161,1.165657 -0.47428,0.368907 -0.94881,0.737526 -1.42363,1.105904 -0.58949,0.06377 -1.17923,0.127281 -1.76924,0.190524 -0.58674,-0.08038 -1.16571,-0.159927 -1.74898,-0.24029 -0.44207,-0.290538 -0.88437,-0.581323 -1.32696,-0.87239 -0.30876,-0.470864 -0.61777,-0.94196 -0.92706,-1.413357 -0.0673,-0.579086 -0.13495,-1.1584 -0.20282,-1.738005 z"
       inkscape:path-effect="#path-effect1000"
       id="path960-2"
       d="m 50.690341,23.290444 c 0.0011,-0.566945 0.07103,-1.1214 0.272646,-1.637897 0.201613,-0.516496 0.53491,-0.994791 0.970191,-1.386412 0.435282,-0.391622 0.972352,-0.696405 1.491488,-0.863108 0.519136,-0.166703 1.020116,-0.195336 1.498793,-0.19335 0.478676,0.002 0.934976,0.03455 1.446643,0.239247 0.511668,0.204692 1.078616,0.581305 1.491829,1.004287 0.413214,0.422981 0.672777,0.892166 0.834337,1.394306 0.161559,0.50214 0.225231,1.037199 0.226494,1.581409 0.0013,0.54421 -0.05982,1.097603 -0.220644,1.568506 -0.160823,0.470904 -0.421347,0.859437 -0.788854,1.237993 -0.367507,0.378556 -0.842034,0.747178 -1.374091,0.963256 -0.532056,0.216078 -1.121796,0.279585 -1.71014,0.271048 -0.588344,-0.0085 -1.167314,-0.08808 -1.679978,-0.273452 -0.512664,-0.185372 -0.954964,-0.476156 -1.330693,-0.857068 -0.375729,-0.380911 -0.684735,-0.85201 -0.873137,-1.377255 -0.188401,-0.525246 -0.256006,-1.104565 -0.254884,-1.67151 z"
       style="fill:#000000;fill-opacity:1;stroke:#000000;stroke-width:0.264583px;stroke-linecap:butt;stroke-linejoin:miter;stroke-opacity:1" />
  </g>
  <g
     inkscape:groupmode="layer"
     id="layer2"
     inkscape:label="Layer 2" />
</svg>
