<?xml version="1.0" encoding="UTF-8" standalone="no"?>
<svg
   xmlns:dc="http://purl.org/dc/elements/1.1/"
   xmlns:cc="http://creativecommons.org/ns#"
   xmlns:rdf="http://www.w3.org/1999/02/22-rdf-syntax-ns#"
   xmlns:svg="http://www.w3.org/2000/svg"
   xmlns="http://www.w3.org/2000/svg"
   xmlns:sodipodi="http://sodipodi.sourceforge.net/DTD/sodipodi-0.dtd"
   xmlns:inkscape="http://www.inkscape.org/namespaces/inkscape"
   sodipodi:docname="pilates.svg"
   inkscape:version="1.0 (4035a4fb49, 2020-05-01)"
   id="svg8"
   version="1.1"
   viewBox="0 0 63 60"
   height="60mm"
   width="63mm">
  <defs
     id="defs2">
    <inkscape:path-effect
       only_selected="false"
       apply_with_weight="true"
       apply_no_weight="true"
       helper_size="0"
       steps="2"
       weight="33.333333"
       lpeversion="1"
       is_visible="true"
       id="path-effect860"
       effect="bspline" />
    <inkscape:path-effect
       only_selected="false"
       apply_with_weight="true"
       apply_no_weight="true"
       helper_size="0"
       steps="2"
       weight="33.333333"
       lpeversion="1"
       is_visible="true"
       id="path-effect856"
       effect="bspline" />
    <inkscape:path-effect
       only_selected="false"
       apply_with_weight="true"
       apply_no_weight="true"
       helper_size="0"
       steps="2"
       weight="33.333333"
       lpeversion="1"
       is_visible="true"
       id="path-effect852"
       effect="bspline" />
  </defs>
  <sodipodi:namedview
     inkscape:snap-intersection-paths="true"
     inkscape:object-nodes="false"
     inkscape:window-maximized="1"
     inkscape:window-y="-9"
     inkscape:window-x="-9"
     inkscape:window-height="1001"
     inkscape:window-width="1920"
     showgrid="false"
     inkscape:document-rotation="0"
     inkscape:current-layer="layer2"
     inkscape:document-units="mm"
     inkscape:cy="140.37476"
     inkscape:cx="21.730277"
     inkscape:zoom="1.979899"
     inkscape:pageshadow="2"
     inkscape:pageopacity="0.0"
     borderopacity="1.0"
     bordercolor="#666666"
     pagecolor="#ffffff"
     id="base" />
  <metadata
     id="metadata5">
    <rdf:RDF>
      <cc:Work
         rdf:about="">
        <dc:format>image/svg+xml</dc:format>
        <dc:type
           rdf:resource="http://purl.org/dc/dcmitype/StillImage" />
        <dc:title />
      </cc:Work>
    </rdf:RDF>
  </metadata>
  <g
     id="layer1"
     inkscape:groupmode="layer"
     inkscape:label="Layer 1" />
  <g
     inkscape:label="Layer 2"
     id="layer2"
     inkscape:groupmode="layer">
    <path
       sodipodi:nodetypes="cccccccccccccc"
       inkscape:original-d="m 12.606275,53.555078 c 0.09476,-0.25172 0.189251,-0.5037 0.283482,-0.75595 0.31525,-0.12573 0.630224,-0.25172 0.944941,-0.37798 2.079175,-0.12573 4.158004,-0.25172 6.236606,-0.37797 2.91389,-0.1966 5.8274,-0.39346 8.7407,-0.59059 1.18146,-0.0706 2.36262,-0.14148 3.54353,-0.21261 0.28375,0.18138 0.56723,0.34674 0.85044,0.51972 0.17351,0.37037 0.34675,0.74046 0.51972,1.1103 -0.14148,0.37038 -0.28322,0.74047 -0.42522,1.11031 -0.22023,0.21288 -0.44071,0.42548 -0.66146,0.63783 -3.50396,-0.0233 -7.00805,-0.047 -10.51246,-0.0708 -2.85824,0.008 -5.716629,0.016 -8.575338,0.0236 -0.178539,-0.0619 -0.361961,-0.12573 -0.54334,-0.18899 -0.133603,-0.27535 -0.267468,-0.55095 -0.401601,-0.82683 z"
       inkscape:path-effect="#path-effect852"
       id="path850"
       d="m 12.653495,53.429158 c 0.04722,-0.12592 0.141713,-0.377899 0.346548,-0.56699 0.204836,-0.18909 0.51981,-0.315081 1.716811,-0.441054 1.197002,-0.125974 3.275831,-0.251961 5.772076,-0.413391 2.496245,-0.161429 5.409755,-0.358288 7.457136,-0.492155 2.047381,-0.133866 3.228541,-0.204735 3.962654,-0.152376 0.734112,0.05236 1.014086,0.223457 1.242366,0.495194 0.22828,0.271737 0.401516,0.641829 0.417163,1.011849 0.01565,0.370021 -0.12609,0.740112 -0.307177,1.031399 -0.181087,0.291286 -0.401565,0.503888 -2.26379,0.598397 -1.862226,0.09451 -5.366317,0.07091 -8.547643,0.06304 -3.181325,-0.0079 -6.039715,-10e-7 -7.558307,-0.02711 -1.518593,-0.02711 -1.702024,-0.09091 -1.859597,-0.260111 -0.157573,-0.169202 -0.291436,-0.444803 -0.358448,-0.58277 -0.06701,-0.137966 -0.06701,-0.138006 -0.01979,-0.263926 z"
       style="fill:#616161;fill-opacity:1;stroke:#616161;stroke-width:0.264583px;stroke-linecap:butt;stroke-linejoin:miter;stroke-opacity:1" />
    <path
       inkscape:original-d="m 26.192414,49.411458 c 1.28093,-0.0888 2.5616,-0.17792 3.842,-0.26727 0.88004,-0.0554 1.78206,-0.1111 2.67269,-0.16705 0.47914,0.21186 0.95799,0.40117 1.43658,0.60136 0.39004,0.39004 0.80207,0.7798 1.20271,1.1693 0.11163,0.44572 0.22299,0.89117 0.33409,1.33635 0.0448,0.34549 0.0893,0.71299 0.13363,1.06908 -0.1,0.41231 -0.22246,0.82434 -0.33409,1.23612 0.0225,0.0225 0.0448,0.0448 0.0668,0.0668 0.5905,0.0225 1.20298,0.0448 1.80407,0.0668 0.80209,-0.2336 1.60388,-0.46746 2.40543,-0.70159 -0.15565,-0.15564 -0.31155,-0.28927 -0.46772,-0.43431 -0.36724,-0.36724 -0.73473,-0.73473 -1.10249,-1.10249 -0.1111,-0.66792 -0.22246,-1.33608 -0.33409,-2.00452 2.7e-4,-0.21133 2.7e-4,-0.42291 0,-0.63476 -0.54542,-0.95747 -1.09108,-1.91517 -1.63703,-2.87315 -0.73474,-0.86838 -1.46971,-1.73699 -2.20497,-2.60588 -0.37837,-0.36724 -0.77927,-0.73472 -1.1693,-1.10249 -0.45633,-0.83496 -0.91291,-1.67017 -1.36976,-2.50565 -0.27815,-1.14679 -0.55655,-2.2938 -0.83522,-3.44109 0.30095,-1.04657 0.60162,-2.09335 0.90204,-3.14042 0.93573,-1.8818 1.87115,-3.76378 2.80633,-5.64607 1.38118,-2.95089 2.76205,-5.901936 4.14268,-8.8533 1.06936,-2.31612 2.13842,-4.63241 3.20723,-6.949009 0.86407,-2.522032 1.72784,-5.0442314 2.59136,-7.5667424 -0.0391,-0.01548 -0.0785,-0.03123 -0.11812,-0.04725 -0.26747,-0.0076 -0.5352,-0.01548 -0.8032,-0.02363 -0.55883,0.252254 -1.11791,0.504233 -1.67726,0.755955 -0.31473,0.417621 -0.6297,0.834961 -0.94495,1.252045 -0.047,0.228629 -0.0942,0.456986 -0.14174,0.68508 -0.18872,0.118386 -0.37771,0.236501 -0.56696,0.354354 -0.25173,0.236503 -0.5037,0.472734 -0.75595,0.708705 -0.14936,0.338876 -0.29897,0.677471 -0.44885,1.015812 -0.0549,0.189257 -0.10998,0.3939894 -0.16536,0.5905874 -0.0312,0.252254 -0.0627,0.519983 -0.0945,0.779577 -0.14148,0.354623 -0.28322,0.708969 -0.42522,1.063058 -0.82658,1.527948 -1.65338,3.05557 -2.48047,4.582959 -1.04707,2.150049 -2.09436,4.299744 -3.14193,6.449219 -0.37772,0.73261 -0.75569,1.46492 -1.13393,2.19698 -0.47221,0.59087 -0.94467,1.18144 -1.41741,1.77177 -0.62971,0.54361 -1.25965,1.08694 -1.88988,1.63002 -0.73995,0.71686 -1.48014,1.43342 -2.22061,2.14974 -0.34622,0.78773 -0.69269,1.57516 -1.03943,2.36235 -0.047,0.52787 -0.0942,1.05545 -0.14174,1.58277 0.0318,1.40983 0.0633,2.81934 0.0945,4.22862 0.0318,1.52007 0.0633,3.03982 0.0945,4.55933 0.0318,0.37825 0.0633,0.75622 0.0945,1.13393 0.15776,0.78773 0.31524,1.59092 0.47247,2.38597 0.22075,0.68537 0.44123,1.37043 0.66146,2.05525 0.0326,0.0758 0.065,0.15141 0.0971,0.22672 z"
       inkscape:path-effect="#path-effect856"
       id="path854"
       d="m 26.832868,49.366905 c 0.640455,-0.04455 1.921127,-0.133644 3.001369,-0.205684 1.080242,-0.07204 1.982219,-0.128415 2.669124,-0.05512 0.686904,0.07329 1.161787,0.272081 1.598782,0.564475 0.436996,0.292394 0.843616,0.687719 1.099655,1.105355 0.256039,0.417636 0.367402,0.863085 0.444649,1.258496 0.07725,0.395412 0.12316,0.762735 0.09008,1.145484 -0.03308,0.382748 -0.145192,0.797574 -0.1896,1.014757 -0.04441,0.217182 -0.02211,0.239482 0.284154,0.261415 0.306261,0.02193 0.918727,0.04461 1.620266,-0.06122 0.701539,-0.105831 1.50333,-0.339689 1.823556,-0.531433 0.320227,-0.191745 0.169879,-0.331354 -0.09183,-0.587487 -0.261711,-0.256133 -0.629201,-0.623623 -0.868739,-1.141445 -0.239537,-0.517822 -0.350898,-1.185982 -0.406605,-1.625885 -0.05571,-0.439903 -0.05571,-0.651483 -0.328461,-1.236118 -0.272754,-0.584635 -0.818419,-1.542332 -1.45873,-2.455528 -0.64031,-0.913197 -1.375283,-1.781804 -1.934702,-2.397104 -0.559419,-0.6153 -0.955071,-0.988346 -1.378303,-1.58968 -0.423231,-0.601334 -0.879813,-1.436543 -1.247361,-2.42768 -0.367547,-0.991138 -0.645949,-2.138147 -0.634871,-3.235145 0.01108,-1.096998 0.311751,-2.143777 0.929822,-3.608247 0.61807,-1.46447 1.553492,-3.346449 2.711672,-5.763034 1.158181,-2.416585 2.53905,-5.367632 3.764045,-8.001372 1.224996,-2.633741 2.294052,-4.950033 3.260492,-7.369329 0.96644,-2.419296 1.830211,-4.9414958 2.242608,-6.2105059 0.412397,-1.26901 0.373001,-1.2847692 0.21943,-1.2966397 -0.15357,-0.011871 -0.4213,-0.019747 -0.834791,0.1022777 -0.413491,0.1220248 -0.97257,0.3740063 -1.409685,0.708726 -0.437115,0.3347197 -0.752089,0.7520564 -0.93321,1.0749949 -0.181122,0.3229386 -0.228366,0.5512865 -0.346427,0.7244048 -0.11806,0.1731182 -0.307048,0.2912369 -0.527568,0.4684348 -0.220519,0.177198 -0.472493,0.4134244 -0.673328,0.7009151 -0.200834,0.2874906 -0.350447,0.6260846 -0.451792,0.8902016 -0.101346,0.2641171 -0.158507,0.4682667 -0.201335,0.6927737 -0.04283,0.224506 -0.07527,0.492121 -0.161904,0.799186 -0.08664,0.307065 -0.228373,0.661412 -0.712661,1.602409 -0.484289,0.940997 -1.311094,2.468617 -2.248173,4.307344 -0.93708,1.838728 -1.984368,3.988424 -2.697015,5.429461 -0.712647,1.441037 -1.090616,2.173348 -1.51583,2.834776 -0.425214,0.661429 -0.89767,1.252002 -1.44887,1.818949 -0.551199,0.566948 -1.181143,1.110273 -1.866242,1.740249 -0.685099,0.629976 -1.425286,1.34654 -1.968661,2.098628 -0.543374,0.752089 -0.889842,1.53952 -1.086689,2.197107 -0.196847,0.657588 -0.244092,1.185164 -0.251951,2.153756 -0.0079,0.968593 0.02364,2.378103 0.05514,3.842777 0.0315,1.464675 0.063,2.984425 0.09451,3.933314 0.03151,0.948888 0.06301,1.326858 0.156774,1.909735 0.09376,0.582878 0.252753,1.385769 0.441764,2.125985 0.189012,0.740215 0.409491,1.425275 0.535927,1.805585 0.126435,0.380309 0.15882,0.455926 0.174935,0.493553 0.01611,0.03763 0.01612,0.03769 0.656579,-0.0069 z"
       style="fill:#616161;fill-opacity:1;stroke:#616161;stroke-width:0.264583px;stroke-linecap:butt;stroke-linejoin:miter;stroke-opacity:1" />
    <path
       d="m 49.010115,49.598145 a 4.4175968,4.1931734 0 0 1 -4.398148,4.193132 4.4175968,4.1931734 0 0 1 -4.436875,-4.156211 4.4175968,4.1931734 0 0 1 4.359081,-4.229729 4.4175968,4.1931734 0 0 1 4.475257,4.118968 l -4.416912,0.07384 z"
       sodipodi:arc-type="slice"
       sodipodi:end="6.2655749"
       sodipodi:start="0"
       sodipodi:ry="4.1931734"
       sodipodi:rx="4.4175968"
       sodipodi:cy="49.598145"
       sodipodi:cx="44.592518"
       sodipodi:type="arc"
       id="path862"
       style="fill:#616161;fill-opacity:1;stroke:#616161;stroke-width:0.264583;stroke-linecap:round;stroke-linejoin:round;stroke-opacity:1" />
    <rect
       y="56.731674"
       x="3.2387805"
       height="1.4425763"
       width="57.430294"
       id="rect864"
       style="fill:#616161;fill-opacity:1;stroke:#616161;stroke-width:0.286665;stroke-linecap:round;stroke-linejoin:round;stroke-opacity:1" />
    <path
       d="m 61.215416,57.448486 a 0.58110446,0.71693963 0 0 1 -0.578546,0.716933 0.58110446,0.71693963 0 0 1 -0.58364,-0.71062 0.58110446,0.71693963 0 0 1 0.573407,-0.72319 0.58110446,0.71693963 0 0 1 0.588689,0.704252 l -0.581014,0.01262 z"
       sodipodi:arc-type="slice"
       sodipodi:end="6.2655749"
       sodipodi:start="0"
       sodipodi:ry="0.71693963"
       sodipodi:rx="0.58110446"
       sodipodi:cy="57.448486"
       sodipodi:cx="60.634312"
       sodipodi:type="arc"
       id="path866"
       style="fill:#616161;fill-opacity:1;stroke:#616161;stroke-width:0.28355;stroke-linecap:round;stroke-linejoin:round;stroke-opacity:1" />
    <path
       style="fill:#616161;fill-opacity:1;stroke:#616161;stroke-width:0.28355;stroke-linecap:round;stroke-linejoin:round;stroke-opacity:1"
       id="path866-5"
       sodipodi:type="arc"
       sodipodi:cx="3.1444736"
       sodipodi:cy="57.444977"
       sodipodi:rx="0.58110446"
       sodipodi:ry="0.71693963"
       sodipodi:start="0"
       sodipodi:end="6.2655749"
       sodipodi:arc-type="slice"
       d="M 3.725578,57.444977 A 0.58110446,0.71693963 0 0 1 3.1470319,58.161909 0.58110446,0.71693963 0 0 1 2.5633916,57.45129 0.58110446,0.71693963 0 0 1 3.1367987,56.7281 0.58110446,0.71693963 0 0 1 3.7254879,57.432352 l -0.5810143,0.01262 z" />
  </g>
</svg>
