<?xml version="1.0" encoding="UTF-8" standalone="no"?>
<svg
   xmlns:dc="http://purl.org/dc/elements/1.1/"
   xmlns:cc="http://creativecommons.org/ns#"
   xmlns:rdf="http://www.w3.org/1999/02/22-rdf-syntax-ns#"
   xmlns:svg="http://www.w3.org/2000/svg"
   xmlns="http://www.w3.org/2000/svg"
   xmlns:sodipodi="http://sodipodi.sourceforge.net/DTD/sodipodi-0.dtd"
   xmlns:inkscape="http://www.inkscape.org/namespaces/inkscape"
   width="63mm"
   height="60mm"
   viewBox="0 0 63 60"
   version="1.1"
   id="svg8"
   inkscape:version="1.0 (4035a4fb49, 2020-05-01)"
   sodipodi:docname="rpg.svg">
  <defs
     id="defs2">
    <inkscape:path-effect
       effect="bspline"
       id="path-effect1122"
       is_visible="true"
       lpeversion="1"
       weight="33.333333"
       steps="2"
       helper_size="0"
       apply_no_weight="true"
       apply_with_weight="true"
       only_selected="false" />
    <inkscape:path-effect
       effect="bspline"
       id="path-effect1118"
       is_visible="true"
       lpeversion="1"
       weight="33.333333"
       steps="2"
       helper_size="0"
       apply_no_weight="true"
       apply_with_weight="true"
       only_selected="false" />
    <inkscape:path-effect
       effect="bspline"
       id="path-effect1106"
       is_visible="true"
       lpeversion="1"
       weight="33.333333"
       steps="2"
       helper_size="0"
       apply_no_weight="true"
       apply_with_weight="true"
       only_selected="false" />
    <inkscape:path-effect
       effect="bspline"
       id="path-effect1102"
       is_visible="true"
       lpeversion="1"
       weight="33.333333"
       steps="2"
       helper_size="0"
       apply_no_weight="true"
       apply_with_weight="true"
       only_selected="false" />
    <inkscape:path-effect
       effect="bspline"
       id="path-effect1098"
       is_visible="true"
       lpeversion="1"
       weight="33.333333"
       steps="2"
       helper_size="0"
       apply_no_weight="true"
       apply_with_weight="true"
       only_selected="false" />
    <inkscape:path-effect
       effect="bspline"
       id="path-effect1077"
       is_visible="true"
       lpeversion="1"
       weight="33.333333"
       steps="2"
       helper_size="0"
       apply_no_weight="true"
       apply_with_weight="true"
       only_selected="false" />
    <inkscape:path-effect
       effect="bspline"
       id="path-effect1073"
       is_visible="true"
       lpeversion="1"
       weight="33.333333"
       steps="2"
       helper_size="0"
       apply_no_weight="true"
       apply_with_weight="true"
       only_selected="false" />
    <inkscape:path-effect
       effect="bspline"
       id="path-effect1069"
       is_visible="true"
       lpeversion="1"
       weight="33.333333"
       steps="2"
       helper_size="0"
       apply_no_weight="true"
       apply_with_weight="true"
       only_selected="false" />
    <inkscape:path-effect
       effect="bspline"
       id="path-effect1065"
       is_visible="true"
       lpeversion="1"
       weight="33.333333"
       steps="2"
       helper_size="0"
       apply_no_weight="true"
       apply_with_weight="true"
       only_selected="false" />
    <inkscape:path-effect
       effect="bspline"
       id="path-effect1061"
       is_visible="true"
       lpeversion="1"
       weight="33.333333"
       steps="2"
       helper_size="0"
       apply_no_weight="true"
       apply_with_weight="true"
       only_selected="false" />
    <inkscape:path-effect
       only_selected="false"
       apply_with_weight="true"
       apply_no_weight="true"
       helper_size="0"
       steps="2"
       weight="33.333333"
       lpeversion="1"
       is_visible="true"
       id="path-effect1057"
       effect="bspline" />
    <inkscape:path-effect
       effect="bspline"
       id="path-effect1038"
       is_visible="true"
       lpeversion="1"
       weight="33.333333"
       steps="2"
       helper_size="0"
       apply_no_weight="true"
       apply_with_weight="true"
       only_selected="false" />
    <inkscape:path-effect
       effect="bspline"
       id="path-effect1034"
       is_visible="true"
       lpeversion="1"
       weight="33.333333"
       steps="2"
       helper_size="0"
       apply_no_weight="true"
       apply_with_weight="true"
       only_selected="false" />
    <inkscape:path-effect
       effect="bspline"
       id="path-effect967"
       is_visible="true"
       lpeversion="1"
       weight="33.333333"
       steps="2"
       helper_size="0"
       apply_no_weight="true"
       apply_with_weight="true"
       only_selected="false" />
    <inkscape:path-effect
       effect="bspline"
       id="path-effect957"
       is_visible="true"
       lpeversion="1"
       weight="33.333333"
       steps="2"
       helper_size="0"
       apply_no_weight="true"
       apply_with_weight="true"
       only_selected="false" />
    <inkscape:path-effect
       effect="bspline"
       id="path-effect953"
       is_visible="true"
       lpeversion="1"
       weight="33.333333"
       steps="2"
       helper_size="0"
       apply_no_weight="true"
       apply_with_weight="true"
       only_selected="false" />
    <inkscape:path-effect
       effect="bspline"
       id="path-effect935"
       is_visible="true"
       lpeversion="1"
       weight="33.333333"
       steps="2"
       helper_size="0"
       apply_no_weight="true"
       apply_with_weight="true"
       only_selected="false" />
    <inkscape:path-effect
       effect="bspline"
       id="path-effect931"
       is_visible="true"
       lpeversion="1"
       weight="33.333333"
       steps="2"
       helper_size="0"
       apply_no_weight="true"
       apply_with_weight="true"
       only_selected="false" />
    <inkscape:path-effect
       effect="bspline"
       id="path-effect927"
       is_visible="true"
       lpeversion="1"
       weight="33.333333"
       steps="2"
       helper_size="0"
       apply_no_weight="true"
       apply_with_weight="true"
       only_selected="false" />
    <inkscape:path-effect
       effect="bspline"
       id="path-effect923"
       is_visible="true"
       lpeversion="1"
       weight="33.333333"
       steps="2"
       helper_size="0"
       apply_no_weight="true"
       apply_with_weight="true"
       only_selected="false" />
    <inkscape:path-effect
       effect="bspline"
       id="path-effect919"
       is_visible="true"
       lpeversion="1"
       weight="33.333333"
       steps="2"
       helper_size="0"
       apply_no_weight="true"
       apply_with_weight="true"
       only_selected="false" />
    <inkscape:path-effect
       effect="bspline"
       id="path-effect915"
       is_visible="true"
       lpeversion="1"
       weight="33.333333"
       steps="2"
       helper_size="0"
       apply_no_weight="true"
       apply_with_weight="true"
       only_selected="false" />
    <inkscape:path-effect
       effect="bspline"
       id="path-effect911"
       is_visible="true"
       lpeversion="1"
       weight="33.333333"
       steps="2"
       helper_size="0"
       apply_no_weight="true"
       apply_with_weight="true"
       only_selected="false" />
    <inkscape:path-effect
       effect="bspline"
       id="path-effect907"
       is_visible="true"
       lpeversion="1"
       weight="33.333333"
       steps="2"
       helper_size="0"
       apply_no_weight="true"
       apply_with_weight="true"
       only_selected="false" />
    <inkscape:path-effect
       effect="bspline"
       id="path-effect903"
       is_visible="true"
       lpeversion="1"
       weight="33.333333"
       steps="2"
       helper_size="0"
       apply_no_weight="true"
       apply_with_weight="true"
       only_selected="false" />
    <inkscape:path-effect
       effect="bspline"
       id="path-effect899"
       is_visible="true"
       lpeversion="1"
       weight="33.333333"
       steps="2"
       helper_size="0"
       apply_no_weight="true"
       apply_with_weight="true"
       only_selected="false" />
    <inkscape:path-effect
       effect="bspline"
       id="path-effect860"
       is_visible="true"
       lpeversion="1"
       weight="33.333333"
       steps="2"
       helper_size="0"
       apply_no_weight="true"
       apply_with_weight="true"
       only_selected="false" />
    <inkscape:path-effect
       effect="bspline"
       id="path-effect856"
       is_visible="true"
       lpeversion="1"
       weight="33.333333"
       steps="2"
       helper_size="0"
       apply_no_weight="true"
       apply_with_weight="true"
       only_selected="false" />
    <inkscape:path-effect
       effect="bspline"
       id="path-effect852"
       is_visible="true"
       lpeversion="1"
       weight="33.333333"
       steps="2"
       helper_size="0"
       apply_no_weight="true"
       apply_with_weight="true"
       only_selected="false" />
  </defs>
  <sodipodi:namedview
     id="base"
     pagecolor="#ffffff"
     bordercolor="#666666"
     borderopacity="1.0"
     inkscape:pageopacity="0.0"
     inkscape:pageshadow="2"
     inkscape:zoom="0.9899495"
     inkscape:cx="261.65063"
     inkscape:cy="324.56205"
     inkscape:document-units="mm"
     inkscape:current-layer="layer1"
     inkscape:document-rotation="0"
     showgrid="false"
     inkscape:window-width="1920"
     inkscape:window-height="1051"
     inkscape:window-x="-9"
     inkscape:window-y="-9"
     inkscape:window-maximized="1"
     inkscape:object-nodes="false"
     inkscape:snap-intersection-paths="true" />
  <metadata
     id="metadata5">
    <rdf:RDF>
      <cc:Work
         rdf:about="">
        <dc:format>image/svg+xml</dc:format>
        <dc:type
           rdf:resource="http://purl.org/dc/dcmitype/StillImage" />
        <dc:title></dc:title>
      </cc:Work>
    </rdf:RDF>
  </metadata>
  <g
     inkscape:label="Layer 1"
     inkscape:groupmode="layer"
     id="layer1">
    <path
       style="fill:#000000;fill-opacity:1;stroke:#000000;stroke-width:3.065;stroke-linecap:round;stroke-linejoin:miter;stroke-miterlimit:4;stroke-dasharray:none;stroke-opacity:1"
       d="m 17.506151,33.542321 c 13.965099,-0.04454 27.929929,-0.08909 41.8945,-0.13363"
       id="path1032"
       inkscape:original-d="m 17.506151,33.542321 c 13.9651,-0.0443 27.92993,-0.0888 41.8945,-0.13363"
       inkscape:path-effect="#path-effect1034" />
    <path
       style="fill:#000000;fill-opacity:1;stroke:#000000;stroke-width:3.065;stroke-linecap:round;stroke-linejoin:miter;stroke-miterlimit:4;stroke-dasharray:none;stroke-opacity:1"
       d="m 20.579751,48.977141 c -0.484028,-0.132007 -0.979673,-0.267181 -1.277449,-0.512957 -0.297776,-0.245775 -0.415164,-0.644892 -0.482026,-3.090882 -0.06686,-2.44599 -0.08913,-6.9591 -0.111395,-11.472571"
       id="path1036"
       inkscape:original-d="m 20.579751,48.977141 c -0.48973,-0.1111 -0.97972,-0.26701 -1.46998,-0.4009 -0.1111,-0.35611 -0.22246,-0.757 -0.33409,-1.1359 -0.022,-4.51303 -0.0443,-9.02614 -0.0668,-13.53961"
       inkscape:path-effect="#path-effect1038"
       sodipodi:nodetypes="cccc" />
    <path
       id="path1036-6"
       d="m 56.460691,48.977141 c 0.484028,-0.132007 0.979673,-0.267181 1.277449,-0.512957 0.297776,-0.245775 0.415164,-0.644892 0.482026,-3.161752 0.06686,-2.51686 0.08913,-7.17171 0.111395,-11.826921"
       style="fill:#000000;fill-opacity:1;stroke:#000000;stroke-width:3.06501;stroke-linecap:round;stroke-linejoin:miter;stroke-miterlimit:4;stroke-dasharray:none;stroke-opacity:1"
       inkscape:original-d="m 56.460691,48.977141 c 0.48973,-0.1111 0.97972,-0.26701 1.46998,-0.4009 0.1111,-0.35611 0.22246,-0.757 0.33409,-1.1359 0.022,-4.65477 0.0443,-9.30962 0.0668,-13.96483"
       inkscape:path-effect="#path-effect1057" />
    <path
       style="fill:#000000;fill-opacity:1;stroke:#000000;stroke-width:3.565;stroke-linecap:round;stroke-linejoin:miter;stroke-miterlimit:4;stroke-dasharray:none;stroke-opacity:1"
       d="m 58.598841,28.731471 c -2.939649,-0.868534 -5.879607,-1.737159 -7.383019,-2.182607 -1.503413,-0.445448 -1.570197,-0.467704 -2.374386,-0.318405 -0.804188,0.1493 -2.382658,0.478018 -3.942815,0.802922"
       id="path1059"
       sodipodi:nodetypes="cccc"
       inkscape:original-d="m 58.598841,28.731471 c -2.9397,-0.86836 -5.87966,-1.73698 -8.81989,-2.60588 -0.0666,-0.022 -0.13337,-0.0443 -0.20045,-0.0668 -1.54119,0.32127 -3.11966,0.64999 -4.67988,0.97459"
       inkscape:path-effect="#path-effect1061" />
    <path
       style="fill:#000000;fill-opacity:1;stroke:#000000;stroke-width:3.865;stroke-linecap:round;stroke-linejoin:miter;stroke-miterlimit:4;stroke-dasharray:none;stroke-opacity:1"
       d="M 4.3431313,48.375781 C 4.8999018,45.770105 5.45663,43.164627 5.7406974,41.694474 6.0247647,40.224321 6.0359615,39.890391 6.0025546,38.175194 5.9691477,36.459997 5.8911284,33.364087 5.8131113,30.268271"
       id="path1063"
       sodipodi:nodetypes="cccc"
       inkscape:original-d="m 4.3431313,48.375781 c 0.55708,-2.60561 1.1138,-5.21109 1.67044,-7.81763 0.0115,-0.33382 0.0227,-0.66775 0.0336,-1.00208 -0.0778,-3.09608 -0.15579,-6.19199 -0.23406,-9.2878"
       inkscape:path-effect="#path-effect1065" />
    <path
       style="fill:#000000;fill-opacity:1;stroke:#000000;stroke-width:0.264583px;stroke-linecap:butt;stroke-linejoin:miter;stroke-opacity:1"
       d="m 11.693041,48.442601 c -0.04454,-3.184697 -0.08908,-6.369656 -0.13363,-9.55489"
       id="path1067"
       inkscape:original-d="m 11.693041,48.442601 c -0.0443,-3.1847 -0.0888,-6.36966 -0.13363,-9.55489"
       inkscape:path-effect="#path-effect1069" />
    <path
       style="fill:#000000;fill-opacity:1;stroke:#000000;stroke-width:3.865;stroke-linecap:round;stroke-linejoin:miter;stroke-miterlimit:4;stroke-dasharray:none;stroke-opacity:1"
       d="m 11.626221,48.576231 c 0.06684,-3.185816 0.133628,-6.369666 0.122547,-8.106884 -0.01108,-1.737219 -0.100163,-2.026755 -0.322913,-3.229502 -0.22275,-1.202748 -0.579103,-3.318589 -0.935514,-5.434774"
       id="path1071"
       sodipodi:nodetypes="cccc"
       inkscape:original-d="m 11.626221,48.576231 c 0.0671,-3.18581 0.1339,-6.36966 0.20045,-9.55488 -0.0888,-0.28928 -0.1779,-0.57881 -0.26725,-0.86863 -0.3561,-2.11566 -0.71246,-4.2315 -1.06908,-6.34765"
       inkscape:path-effect="#path-effect1073" />
    <path
       style="fill:none;fill-opacity:1;stroke:#000000;stroke-width:3.065;stroke-linecap:round;stroke-linejoin:miter;stroke-miterlimit:4;stroke-dasharray:none;stroke-opacity:1"
       d="m 39.956791,26.058781 c -1.795677,0.798078 -3.608012,1.60356 -4.599083,2.015609 -0.99107,0.412049 -1.169254,0.434316 -2.121847,-0.119062 -0.952594,-0.553378 -2.700009,-1.695919 -4.43757,-2.832017"
       id="path1075"
       inkscape:original-d="m 39.956791,26.058781 c -1.8038,0.7798 -3.60787,1.60388 -5.4122,2.40542 -0.17792,0.0225 -0.3561,0.0448 -0.53454,0.0668 -1.73703,-1.11338 -3.47424,-2.27153 -5.21176,-3.40769"
       inkscape:path-effect="#path-effect1077" />
    <path
       style="fill:#000000;fill-opacity:1;stroke:#000000;stroke-width:3.06501;stroke-linecap:round;stroke-linejoin:round;stroke-miterlimit:4;stroke-dasharray:none;stroke-opacity:1"
       id="path1079"
       sodipodi:type="arc"
       sodipodi:cx="12.728714"
       sodipodi:cy="9.6217051"
       sodipodi:rx="1.9711127"
       sodipodi:ry="2.0045214"
       sodipodi:start="0"
       sodipodi:end="6.2655749"
       sodipodi:arc-type="slice"
       d="m 14.699827,9.6217051 a 1.9711127,2.0045214 0 0 1 -1.962435,2.0045019 1.9711127,2.0045214 0 0 1 -1.979714,-1.986852 1.9711127,2.0045214 0 0 1 1.945003,-2.0219965 1.9711127,2.0045214 0 0 1 1.99684,1.9690479 l -1.970807,0.035299 z" />
    <path
       d="m 29.162183,20.401262 a 3.2950478,3.1804907 0 0 1 -2.258399,3.630142 3.2950478,3.1804907 0 0 1 -3.993372,-1.752816 3.2950478,3.1804907 0 0 1 1.34993,-4.028898"
       sodipodi:arc-type="arc"
       sodipodi:end="4.1827896"
       sodipodi:start="6.0955676"
       sodipodi:ry="3.1804907"
       sodipodi:rx="3.2950478"
       sodipodi:cy="20.994484"
       sodipodi:cx="25.924959"
       sodipodi:type="arc"
       id="path1079-2"
       style="fill:#000000;fill-opacity:1;stroke:#000000;stroke-width:0.757303;stroke-linecap:round;stroke-linejoin:miter;stroke-miterlimit:4;stroke-dasharray:none;stroke-opacity:1"
       transform="matrix(0,1,1,0,0,0)"
       sodipodi:open="true" />
    <path
       style="fill:#000000;fill-opacity:1;stroke:#000000;stroke-width:0.264583px;stroke-linecap:butt;stroke-linejoin:miter;stroke-opacity:1"
       d="m 17.735524,25.169247 c 0.09463,0.08281 0.283624,0.248175 0.464717,0.433246 0.181093,0.185071 0.35433,0.389805 0.499966,0.614247 0.145636,0.224443 0.26375,0.468546 0.354261,0.752027 0.09051,0.283481 0.153506,0.606324 0.174134,0.951791 0.02063,0.345466 -0.001,0.713593 -0.01286,0.898538 -0.01183,0.184945 -0.01383,0.186945 0.159596,0.251012 0.173421,0.06407 0.52179,0.190028 0.755523,0.268758 0.233732,0.07873 0.352742,0.11023 0.55631,-0.185056 0.203569,-0.295286 0.492051,-0.917355 0.380462,-1.866144 -0.111588,-0.948788 -0.623421,-2.224441 -1.057417,-2.926329 -0.433995,-0.701889 -0.790307,-0.829784 -1.106775,-0.803736 -0.316469,0.02605 -0.592778,0.206189 -0.796598,0.486809 -0.203821,0.280619 -0.334974,0.661442 -0.400525,0.851781 -0.06555,0.19034 -0.06542,0.19025 0.02921,0.273056 z"
       id="path1096"
       sodipodi:nodetypes="scccccccccccccs"
       inkscape:original-d="m 17.640891,25.086441 c 0.18925,0.16563 0.37824,0.331 0.56696,0.4961 0.17351,0.205 0.34674,0.40974 0.51972,0.61421 0.11838,0.24438 0.2365,0.48848 0.35435,0.73233 0.0633,0.32312 0.12626,0.64597 0.18899,0.96856 -0.0214,0.3684 -0.043,0.73653 -0.065,1.1044 -0.002,0.002 -0.004,0.004 -0.006,0.006 0.34879,0.12628 0.69716,0.25224 1.04534,0.37797 0.11928,0.0318 0.23829,0.0633 0.35704,0.0945 0.28876,-0.62184 0.57724,-1.24391 0.86547,-1.86626 -0.51158,-1.27543 -1.02342,-2.55108 -1.53552,-3.82701 -0.35608,-0.12764 -0.71239,-0.25554 -1.069,-0.38371 -0.27607,0.18043 -0.55238,0.36057 -0.829,0.54047 -0.1309,0.38114 -0.26206,0.76196 -0.39348,1.14253 z"
       inkscape:path-effect="#path-effect1098" />
    <path
       style="fill:#000000;fill-opacity:1;stroke:#000000;stroke-width:0.264583px;stroke-linecap:butt;stroke-linejoin:miter;stroke-opacity:1"
       d="m 39.69744,29.527637 c 0.22843,-0.09452 0.685146,-0.283512 1.094603,-0.476437 0.409457,-0.192924 0.771678,-0.389782 1.059042,-0.622042 0.287363,-0.23226 0.49997,-0.499985 0.681071,-0.818854 0.181101,-0.31887 0.330713,-0.688963 0.397688,-1.047188 0.06698,-0.358225 0.05124,-0.704693 0.03946,-0.897637 -0.01178,-0.192944 -0.01964,-0.232273 0.216234,-0.241828 0.235874,-0.0096 0.715243,0.01098 1.337311,-0.0481 0.622069,-0.05908 1.386837,-0.197721 1.72186,0.05594 0.335022,0.253663 0.240526,0.899368 0.102707,1.438732 -0.137819,0.539364 -0.318925,0.972445 -0.440975,1.248031 -0.12205,0.275586 -0.185054,0.393715 -0.771746,0.566116 -0.586692,0.172402 -1.712407,0.402301 -2.472294,0.551919 -0.759887,0.149617 -1.161484,0.220487 -1.633941,0.271683 -0.472457,0.0512 -1.015787,0.0827 -1.287578,0.09845 -0.271791,0.01576 -0.271871,0.01574 -0.04344,-0.07879 z"
       id="path1100"
       inkscape:original-d="m 39.469011,29.622161 c 0.45699,-0.18873 0.91371,-0.37771 1.37016,-0.56697 0.3625,-0.1966 0.72472,-0.39346 1.08668,-0.59058 0.21289,-0.26748 0.42549,-0.53521 0.63784,-0.8032 0.14988,-0.36985 0.2995,-0.73994 0.44885,-1.11031 -0.0155,-0.34622 -0.0312,-0.69269 -0.0472,-1.03943 -0.008,-0.0391 -0.0155,-0.0785 -0.0236,-0.11812 0.47966,0.0208 0.95903,0.0413 1.43817,0.0616 0.76506,-0.13839 1.52983,-0.27702 2.29435,-0.41593 -0.0942,0.64598 -0.18873,1.29168 -0.28349,1.93712 -0.18085,0.43338 -0.36196,0.86646 -0.54334,1.2993 -0.0627,0.11838 -0.12572,0.2365 -0.18899,0.35435 -1.11006,0.22863 -2.23609,0.45699 -3.35453,0.68508 -0.40135,0.0711 -0.80294,0.14201 -1.2048,0.21261 -0.54309,0.0318 -1.08642,0.0633 -1.63002,0.0945 z"
       inkscape:path-effect="#path-effect1102"
       sodipodi:nodetypes="ccccccccccccccsc" />
    <path
       style="fill:#000000;fill-opacity:1;stroke:#000000;stroke-width:0.265;stroke-linecap:butt;stroke-linejoin:miter;stroke-miterlimit:4;stroke-dasharray:none;stroke-opacity:1"
       d="m 27.935211,24.664048 c -0.04457,0.142066 -0.133662,0.426045 -0.158751,0.676201 -0.02509,0.250156 0.01406,0.468267 0.0865,0.67708 0.07244,0.208813 0.178235,0.409262 0.345321,0.637538 0.167086,0.228275 0.395375,0.484407 0.684916,0.812929 0.289542,0.328523 0.640331,0.729425 0.968865,1.074637 0.328534,0.345212 0.634777,0.634749 0.784964,0.793379 0.150188,0.15863 0.144615,0.186495 4.1e-5,0.203102 -0.144573,0.01661 -0.428652,0.02218 -0.89916,0.02496 -0.470507,0.0028 -1.127537,0.0028 -1.570184,-0.01946 -0.442646,-0.02224 -0.670928,-0.06679 -0.882527,-0.166929 -0.211599,-0.100141 -0.406482,-0.256047 -0.559683,-0.46481 -0.153202,-0.208762 -0.264565,-0.470461 -0.32858,-0.87983 -0.06402,-0.409369 -0.08087,-0.977138 -0.09479,-1.712141 -0.01392,-0.735003 -0.02505,-1.642583 -0.0056,-2.25232 0.01947,-0.609738 0.06958,-0.921544 0.207417,-1.187569 0.137833,-0.266026 0.368905,-0.491464 0.594477,-0.647395 0.225572,-0.155931 0.448301,-0.24502 0.746268,-0.28675 0.297966,-0.04173 0.671014,-0.03617 2.129891,2.9e-5 1.458876,0.03619 4.003456,0.10301 6.116572,0.161476 2.113115,0.05847 3.794655,0.108578 4.696686,0.13363 0.902031,0.02505 1.024521,0.02505 1.511067,-0.07783 0.486547,-0.102881 1.339727,-0.309206 2.433872,-0.582046 1.094144,-0.27284 2.430463,-0.612486 3.338082,-0.82964 0.90762,-0.217155 1.386469,-0.311814 1.731709,-0.370269 0.34524,-0.05846 0.556824,-0.08072 1.035727,0.01678 0.478904,0.0975 1.225014,0.314652 2.301668,0.642931 1.076654,0.32828 2.486947,0.768651 3.57552,1.097168 1.088574,0.328517 1.856956,0.545668 2.385369,0.703233 0.528413,0.157565 0.830208,0.260062 1.038988,0.371503 0.208779,0.11144 0.331279,0.23394 0.450951,0.39544 0.119673,0.1615 0.236601,0.361951 0.294975,0.587435 0.05837,0.225485 0.05837,0.476045 0.04444,0.687613 -0.01393,0.211569 -0.04177,0.384173 -0.08353,0.531677 -0.04176,0.147504 -0.09745,0.270011 -0.152993,0.336743 -0.05554,0.06673 -0.111236,0.07787 -1.110677,-0.247799 -0.999441,-0.325666 -2.942683,-0.98826 -4.601994,-1.511676 -1.659311,-0.523417 -3.03461,-0.907612 -3.814147,-1.116433 -0.779538,-0.20882 -0.963304,-0.24223 -1.205563,-0.228356 -0.242259,0.01387 -0.542932,0.07512 -1.016557,0.21902 -0.473625,0.143897 -1.130046,0.373923 -1.79823,0.616137 -0.668184,0.242214 -1.353046,0.498341 -2.046285,0.760045 -0.69324,0.261705 -1.394811,0.528972 -1.767786,0.659869 -0.372976,0.130897 -0.417518,0.125331 -0.503893,0.0141 -0.08638,-0.111228 -0.214439,-0.328381 -0.40929,-0.581749 -0.194851,-0.253368 -0.456549,-0.54291 -0.722777,-0.745784 -0.266228,-0.202875 -0.541076,-0.320665 -0.825068,-0.398669 -0.283993,-0.078 -0.579096,-0.11698 -0.932711,-0.105879 -0.353615,0.0111 -0.765648,0.07235 -1.289108,0.247738 -0.523459,0.175389 -1.15821,0.464926 -1.75957,0.732199 -0.60136,0.267273 -1.169294,0.512263 -1.595239,0.68209 -0.425945,0.169828 -0.709923,0.264486 -0.885267,0.309069 -0.175344,0.04458 -0.242142,0.03902 -0.656955,-0.08623 -0.414813,-0.125245 -1.177632,-0.370237 -1.915419,-0.584624 -0.737788,-0.214386 -1.450489,-0.398132 -1.929354,-0.50673 -0.478865,-0.108599 -0.723854,-0.142004 -1.00797,-0.02232 -0.284116,0.119686 -0.607064,0.392518 -0.768552,0.528946 -0.161489,0.136429 -0.161519,0.136459 -0.206089,0.278526 z"
       id="path1116"
       inkscape:original-d="m 27.979781,24.521981 c -0.0888,0.28424 -0.17792,0.56821 -0.26727,0.85192 0.0337,0.21743 0.0782,0.43458 0.11693,0.65147 0.10606,0.20072 0.21185,0.40117 0.31738,0.60135 0.22856,0.25641 0.45685,0.51254 0.68488,0.76841 0.35106,0.40117 0.70185,0.80207 1.05237,1.20271 0.30652,0.28981 0.61276,0.57935 0.91874,0.86862 -0.005,0.0281 -0.0109,0.0559 -0.0167,0.0835 -0.28372,2.7e-4 -0.56769,0.0114 -0.85193,0.0167 -0.65678,2.6e-4 -1.31381,2.6e-4 -1.97111,0 -0.22803,-0.0443 -0.45632,-0.0888 -0.68488,-0.13364 -0.19462,-0.15564 -0.3895,-0.31155 -0.58465,-0.46772 -0.1111,-0.26144 -0.22246,-0.52314 -0.33409,-0.7851 -0.022,-0.55656 -0.0331,-1.1245 -0.0501,-1.68714 -0.0109,-0.90736 -0.022,-1.81494 -0.0334,-2.72281 0.0504,-0.31155 0.10049,-0.62336 0.15034,-0.93544 0.22856,-0.2169 0.45685,-0.44519 0.68488,-0.66818 0.22299,-0.0888 0.44571,-0.17791 0.66817,-0.26726 0.37334,0.006 0.74639,0.0114 1.11919,0.0167 2.54495,0.0671 5.08953,0.1339 7.63389,0.20045 1.68187,0.0504 3.36341,0.10049 5.04471,0.15034 0.12277,2.7e-4 0.24526,2.7e-4 0.3675,0 0.8522,-0.20019 1.70411,-0.41177 2.55576,-0.61806 1.33664,-0.3394 2.67296,-0.67904 4.00905,-1.01896 0.47913,-0.0944 0.95798,-0.18905 1.43657,-0.28398 0.21186,-0.022 0.42344,-0.0443 0.63476,-0.0668 0.74641,0.21742 1.49252,0.43457 2.23839,0.65146 1.40902,0.43459 2.81773,0.88003 4.22619,1.31965 0.76869,0.21742 1.53707,0.43458 2.30521,0.65147 0.28981,0.0949 0.59048,0.20071 0.88533,0.30068 0.12276,0.12276 0.24526,0.24526 0.36749,0.36749 0.1172,0.20072 0.23413,0.40117 0.35079,0.60136 2.7e-4,0.25083 2.7e-4,0.50139 0,0.75169 -0.0276,0.17288 -0.0554,0.34549 -0.0835,0.51784 -0.0554,0.12276 -0.1111,0.24526 -0.16704,0.36749 -0.0554,0.0114 -0.1111,0.0225 -0.16705,0.0334 -1.94304,-0.66235 -3.88628,-1.32495 -5.82981,-1.98781 -1.37509,-0.38395 -2.75039,-0.76814 -4.12598,-1.15261 -0.18348,-0.0331 -0.36723,-0.0666 -0.55124,-0.10022 -0.30042,0.0615 -0.60109,0.12276 -0.90204,0.18375 -0.64564,0.22856 -1.30267,0.45685 -1.9544,0.68487 -0.68463,0.25641 -1.36949,0.51254 -2.05464,0.7684 -0.70133,0.26754 -1.4029,0.53481 -2.10474,0.80181 -0.0443,-0.005 -0.0888,-0.0109 -0.13364,-0.0167 -0.1278,-0.2169 -0.25587,-0.43405 -0.3842,-0.65147 -0.26144,-0.28928 -0.52314,-0.57882 -0.7851,-0.86863 -0.27258,-0.11109 -0.54541,-0.23359 -0.81852,-0.35079 -0.29485,-0.0387 -0.58995,-0.0777 -0.88533,-0.11693 -0.41178,0.0615 -0.82381,0.12277 -1.23612,0.18375 -0.63451,0.28981 -1.26926,0.57935 -1.90429,0.86863 -0.5677,0.24526 -1.13563,0.49026 -1.70385,0.73499 -0.28371,0.0949 -0.56768,0.18958 -0.85192,0.28397 -0.0666,-0.005 -0.13337,-0.0109 -0.20045,-0.0167 -0.76258,-0.24474 -1.5254,-0.48973 -2.2885,-0.73499 -0.71247,-0.18349 -1.42517,-0.36724 -2.13815,-0.55125 -0.24474,-0.0331 -0.48973,-0.0665 -0.73499,-0.10022 -0.3227,0.2731 -0.64564,0.54594 -0.96886,0.81851 z"
       inkscape:path-effect="#path-effect1118" />
    <path
       style="fill:#000000;fill-opacity:1;stroke:#000000;stroke-width:0.264583px;stroke-linecap:butt;stroke-linejoin:miter;stroke-opacity:1"
       d="m 5.7547166,30.90301 c -0.3590748,0.13361 -1.0773435,0.400873 -1.4282167,0.07251 -0.3508731,-0.328364 -0.3341731,-1.252674 -0.2423108,-2.444272 0.091862,-1.191599 0.2589025,-2.650419 0.4537897,-4.382118 0.1948871,-1.7317 0.4176105,-3.73619 0.6124913,-5.206191 0.1948807,-1.470001 0.3619216,-2.405431 0.5456776,-2.995741 0.1837561,-0.590311 0.3841988,-0.835299 0.6571094,-1.041365 0.2729106,-0.206066 0.6181207,-0.373104 0.9578617,-0.451027 0.339741,-0.07792 0.6738211,-0.06679 1.6826266,0.06617 1.0088056,0.132956 2.7107196,0.390481 3.6962906,0.585421 0.98557,0.19494 1.263969,0.328573 1.473101,0.519319 0.209132,0.190745 0.358672,0.455319 0.464414,0.722588 0.105743,0.267269 0.172558,0.545665 0.1836,0.930335 0.01104,0.384671 -0.03341,0.873656 -0.172618,1.892627 -0.13921,1.018972 -0.373067,2.566882 -0.503841,3.34628 -0.130775,0.779397 -0.158568,0.790514 -0.467518,0.659762 -0.308949,-0.130751 -0.899158,-0.403583 -1.208238,-0.559416 -0.309079,-0.155832 -0.336912,-0.194808 -0.640415,-0.915881 -0.303504,-0.721073 -0.882574,-2.124203 -1.227813,-2.998404 -0.345238,-0.874202 -0.456595,-1.219413 -0.531721,-1.386643 -0.075127,-0.167231 -0.1141167,-0.156094 -0.1002607,0.08073 0.013856,0.236824 0.080671,0.69897 0.2174147,1.795864 0.136744,1.096894 0.342105,2.817482 0.453162,3.701907 0.111058,0.884425 0.128466,0.930859 0.805094,1.256489 0.676628,0.32563 2.012948,0.932541 2.959531,1.378 0.946584,0.445459 1.503385,0.729427 1.87365,0.952196 0.370264,0.222769 0.554009,0.384245 0.709863,0.58195 0.155853,0.197706 0.283919,0.431563 0.35057,0.640352 0.06665,0.208788 0.07238,0.403659 0.05008,0.604079 -0.0223,0.20042 -0.07241,0.411997 -0.147583,0.590115 -0.07517,0.178117 -0.175386,0.32287 -0.315398,0.455172 -0.140012,0.132303 -0.327612,0.257369 -0.561545,0.326989 -0.233934,0.06962 -0.517581,0.0863 -0.821016,0.04459 -0.303435,-0.04171 -0.626366,-0.14193 -1.873644,-0.715429 -1.247279,-0.573499 -3.4188,-1.620285 -4.5047415,-2.143766 C 8.0682213,26.342721 7.6506113,25.925111 7.6228166,25.827828 7.595022,25.730545 7.5393414,25.53566 7.3444294,24.213196 7.1495174,22.890732 6.8154376,20.440812 6.6345626,19.19634 6.4536876,17.951868 6.4258545,17.912892 6.3895451,17.929471 c -0.036309,0.01658 -0.080864,0.08898 -0.1810846,1.021746 -0.1002204,0.93277 -0.2561233,2.725659 -0.3647032,3.942299 -0.10858,1.216639 -0.1698295,1.856967 -0.1753598,2.324721 -0.00553,0.467754 0.044582,0.76286 0.1643613,1.077466 0.119779,0.314605 0.3090922,0.648689 0.5123799,0.913145 0.2032877,0.264456 0.4204445,0.45934 0.8275289,0.71151 0.4070843,0.25217 1.0128155,0.566253 1.5863403,0.850223 0.5735248,0.28397 1.1191865,0.540097 1.8012921,0.854698 0.682106,0.314601 1.500595,0.687653 1.909693,0.885363 0.409098,0.197709 0.409098,0.231109 0.370856,0.373295 -0.03824,0.142186 -0.117715,0.40899 -0.181734,0.740321 -0.06402,0.331331 -0.114125,0.73223 -0.111304,1.127599 0.0028,0.39537 0.0585,0.785135 -0.381255,0.718256 C 11.7268,33.403234 10.791371,32.879842 10.142673,32.473397 9.4939747,32.066952 9.1320647,31.777422 8.8230445,31.565796 8.5140243,31.354169 8.2578963,31.220536 8.010095,31.142513 7.7622937,31.06449 7.5228706,31.042224 7.2082733,30.989346 6.8936761,30.936469 6.5039245,30.852949 6.3088879,30.811155 6.1138513,30.769361 6.1137913,30.769401 5.7547166,30.90301 Z"
       id="path1120"
       sodipodi:nodetypes="cccccccccccccccccccccccccccccccccccccccccccccccccccccccccc"
       inkscape:original-d="m 6.1137913,30.769401 c -0.71803,0.26754 -1.4363,0.5348 -2.15486,0.80181 0.017,-0.92405 0.0337,-1.84836 0.0501,-2.77292 0.16731,-1.45861 0.33435,-2.91743 0.50113,-4.37654 0.22299,-2.00429 0.44572,-4.00878 0.66818,-6.01356 0.16731,-0.9352 0.33435,-1.87063 0.50113,-2.80633 0.20072,-0.24474 0.40116,-0.48973 0.60135,-0.73499 0.3455,-0.166787 0.69071,-0.333826 1.03567,-0.501135 0.33436,0.0114 0.66844,0.02254 1.00226,0.03341 1.6818697,0.267538 3.3856797,0.512535 5.0781197,0.768395 0.27868,0.13391 0.55708,0.26754 0.83522,0.40091 0.14504,0.24526 0.28981,0.51253 0.43431,0.7684 0.0671,0.27867 0.1339,0.55707 0.20045,0.83521 -0.0554,0.49027 -0.0888,0.98026 -0.13363,1.46999 -0.2336,1.54823 -0.46746,3.09614 -0.70158,4.6438 -0.0276,0.0114 -0.0554,0.0225 -0.0835,0.0334 -0.58997,-0.27258 -1.18018,-0.54541 -1.77066,-0.81851 -0.0276,-0.0387 -0.0554,-0.0777 -0.0835,-0.11693 -0.57883,-1.40293 -1.1579,-2.80606 -1.73725,-4.20949 -0.1111,-0.34497 -0.22246,-0.69018 -0.33408,-1.03567 -0.0387,0.0114 -0.0777,0.0225 -0.1169297,0.0334 0.0671,0.46243 0.1338897,0.92458 0.2004497,1.38647 0.20629,1.73198 0.4123,3.45249 0.61806,5.17834 0.0114,0.0448 0.0337,0.0894 0.0501,0.13364 1.33664,0.6072 2.67296,1.21411 4.00904,1.82077 0.55709,0.28424 1.11389,0.56821 1.67044,0.85192 0.18401,0.16175 0.36776,0.32322 0.55124,0.48443 0.12834,0.23413 0.2564,0.46799 0.3842,0.70158 0.006,0.18402 0.0114,0.3789 0.0167,0.56795 -0.0499,0.21186 -0.1,0.42344 -0.15034,0.63477 -0.1,0.14503 -0.20019,0.2898 -0.30068,0.43431 -0.17792,0.12276 -0.36723,0.24526 -0.55124,0.36749 -0.28372,0.0225 -0.56769,0.0337 -0.85192,0.0501 -0.3227,-0.1 -0.64564,-0.20019 -0.96886,-0.30068 -2.17134,-1.04656 -4.34286,-2.09335 -6.5146897,-3.14042 l -0.41761,-0.41761 c -0.0554,-0.19462 -0.1111,-0.3895 -0.16704,-0.58465 -0.33383,-2.44976 -0.66791,-4.89968 -1.00226,-7.34991 -0.0276,-0.0387 -0.0554,-0.0777 -0.0835,-0.11693 -0.0443,0.0726 -0.0888,0.14503 -0.13364,0.21715 -0.15565,1.79324 -0.31155,3.58613 -0.46772,5.3788 -0.061,0.64061 -0.12223,1.28094 -0.18375,1.921 0.0504,0.29538 0.10049,0.59049 0.15034,0.88533 0.18958,0.33436 0.3789,0.66844 0.56795,1.00227 0.21742,0.19515 0.43458,0.39003 0.65147,0.58465 0.59606,0.31208 1.20297,0.62389 1.80406,0.93544 0.54596,0.2564 1.09162,0.51253 1.6370297,0.7684 0.8188,0.37334 1.63729,0.74639 2.45554,1.11919 2.7e-4,0.0225 2.7e-4,0.0559 0,0.0835 -0.0777,0.25641 -0.15564,0.52367 -0.23386,0.78511 -0.0498,0.40117 -0.0999,0.80207 -0.15032,1.20271 0.0559,0.39003 0.11162,0.77979 0.16704,1.1693 -0.9352,-0.52315 -1.87063,-1.04654 -2.8063297,-1.5702 -0.36167,-0.28929 -0.72358,-0.57882 -1.08578,-0.86863 -0.25587,-0.13337 -0.512,-0.267 -0.7684,-0.40091 -0.23917,-0.022 -0.47859,-0.0443 -0.71828,-0.0668 -0.38952,-0.0833 -0.77928,-0.16678 -1.16931,-0.25057 z"
       inkscape:path-effect="#path-effect1122" />
  </g>
  <g
     inkscape:groupmode="layer"
     id="layer2"
     inkscape:label="Layer 2" />
</svg>
