<?xml version="1.0" encoding="UTF-8" standalone="no"?>
<svg
   xmlns:dc="http://purl.org/dc/elements/1.1/"
   xmlns:cc="http://creativecommons.org/ns#"
   xmlns:rdf="http://www.w3.org/1999/02/22-rdf-syntax-ns#"
   xmlns:svg="http://www.w3.org/2000/svg"
   xmlns="http://www.w3.org/2000/svg"
   xmlns:sodipodi="http://sodipodi.sourceforge.net/DTD/sodipodi-0.dtd"
   xmlns:inkscape="http://www.inkscape.org/namespaces/inkscape"
   sodipodi:docname="arrow_left.svg"
   inkscape:version="1.0 (4035a4fb49, 2020-05-01)"
   id="svg8"
   version="1.1"
   viewBox="0 0 13.229166 13.229167"
   height="50"
   width="50">
  <defs
     id="defs2" />
  <sodipodi:namedview
     inkscape:window-maximized="1"
     inkscape:window-y="-9"
     inkscape:window-x="-9"
     inkscape:window-height="1001"
     inkscape:window-width="1920"
     units="px"
     inkscape:pagecheckerboard="true"
     showgrid="false"
     inkscape:document-rotation="0"
     inkscape:current-layer="layer1"
     inkscape:document-units="px"
     inkscape:cy="37.681468"
     inkscape:cx="50.818131"
     inkscape:zoom="3.9933812"
     inkscape:pageshadow="2"
     inkscape:pageopacity="0.0"
     borderopacity="1.0"
     bordercolor="#666666"
     pagecolor="#ffffff"
     id="base" />
  <metadata
     id="metadata5">
    <rdf:RDF>
      <cc:Work
         rdf:about="">
        <dc:format>image/svg+xml</dc:format>
        <dc:type
           rdf:resource="http://purl.org/dc/dcmitype/StillImage" />
        <dc:title></dc:title>
      </cc:Work>
    </rdf:RDF>
  </metadata>
  <g
     id="layer1"
     inkscape:groupmode="layer"
     inkscape:label="Layer 1">
    <path
       d="M 6.6703939,0.26458333 A 6.3500002,6.3499999 0 0 1 12.964583,6.6145832 6.3500002,6.3499999 0 0 1 6.6145832,12.964583 6.3500002,6.3499999 0 0 1 0.26458333,6.6145832 6.3500002,6.3499999 0 0 1 6.6145832,0.26458333 a 6.3500002,6.3499999 0 0 1 0.055811,0 z m 1.793172,2.64376637 c -0.1102606,5.199e-4 -0.2220428,0.03189 -0.3203937,0.096118 L 3.4835084,6.0476928 C 3.3158998,6.1571483 3.2289556,6.3357434 3.233911,6.5158812 3.227241,6.6975801 3.314455,6.8783215 3.4835084,6.9887205 l 4.6596638,3.0427085 c 0.262269,0.171273 0.6175541,0.10708 0.7963336,-0.1441772 0.1787805,-0.2512579 0.111374,-0.591471 -0.150895,-0.7627443 L 4.7976398,6.5179484 8.7886108,3.9113891 C 9.05088,3.7401158 9.1182858,3.3999021 8.9395058,3.1486451 8.8277686,2.9916093 8.6473336,2.9074827 8.4635659,2.9083497 Z"
       style="fill:#000000;fill-opacity:1;fill-rule:evenodd;stroke-width:1.27"
       id="path10" />
    <g
       style="fill:#ffffff;fill-opacity:1;stroke:#ffffff;stroke-opacity:1"
       transform="translate(-0.06681738,0.03340869)"
       id="g2808" />
    <g
       transform="matrix(1.3370693,0,0,1.2809286,-2.0648248,-2.0261416)"
       id="g2851" />
  </g>
</svg>
