<?xml version="1.0" encoding="UTF-8" standalone="no"?>
<svg
   xmlns:dc="http://purl.org/dc/elements/1.1/"
   xmlns:cc="http://creativecommons.org/ns#"
   xmlns:rdf="http://www.w3.org/1999/02/22-rdf-syntax-ns#"
   xmlns:svg="http://www.w3.org/2000/svg"
   xmlns="http://www.w3.org/2000/svg"
   xmlns:sodipodi="http://sodipodi.sourceforge.net/DTD/sodipodi-0.dtd"
   xmlns:inkscape="http://www.inkscape.org/namespaces/inkscape"
   version="1.1"
   width="347"
   height="151"
   id="svg838"
   viewBox="0 0 347 151"
   sodipodi:docname="Logotipo_Phisiocare.svg"
   inkscape:version="1.0 (4035a4fb49, 2020-05-01)">
  <metadata
     id="metadata844">
    <rdf:RDF>
      <cc:Work
         rdf:about="">
        <dc:format>image/svg+xml</dc:format>
        <dc:type
           rdf:resource="http://purl.org/dc/dcmitype/StillImage" />
        <dc:title></dc:title>
      </cc:Work>
    </rdf:RDF>
  </metadata>
  <defs
     id="defs842" />
  <sodipodi:namedview
     inkscape:document-rotation="0"
     pagecolor="#ffffff"
     bordercolor="#666666"
     borderopacity="1"
     objecttolerance="10"
     gridtolerance="10"
     guidetolerance="10"
     inkscape:pageopacity="0"
     inkscape:pageshadow="2"
     inkscape:window-width="1920"
     inkscape:window-height="1001"
     id="namedview840"
     showgrid="false"
     inkscape:zoom="1.9952705"
     inkscape:cx="200.05413"
     inkscape:cy="141.68142"
     inkscape:window-x="-9"
     inkscape:window-y="-9"
     inkscape:window-maximized="1"
     inkscape:current-layer="svg838" />
  <g
     transform="translate(-56.13274,-53.626814)"
     id="Layer1000">
    <path
       d="m 138.3693,200.0842 h 1.2417 v -4.815 h 4.0099 v -0.9241 h -4.0099 v -4.169 h 4.3378 v -0.9241 h -5.5795 z m 252.6723,-0.5135 c 0.513,0.2851 1.2388,0.4701 2.0201,0.4701 1.6822,0 2.6492,-0.8541 2.6492,-2.149 0,-1.1028 -0.6292,-1.7453 -1.8581,-2.2351 -0.9236,-0.3678 -1.3509,-0.646 -1.3509,-1.2584 0,-0.55 0.4273,-1.0097 1.1889,-1.0097 0.6593,0 1.1723,0.2446 1.4504,0.4303 l 0.3216,-0.934 c -0.3944,-0.2255 -1.0236,-0.4204 -1.7419,-0.4204 -1.5302,0 -2.4607,0.8934 -2.4607,2.0894 0,0.8877 0.6061,1.6221 1.8876,2.0963 0.9536,0.3672 1.3214,0.7217 1.3214,1.3642 0,0.6125 -0.4406,1.1029 -1.3809,1.1029 -0.646,0 -1.3249,-0.2753 -1.7089,-0.5367 z m -7.8811,-3.9406 c 0.1122,-0.9571 0.7483,-2.2415 2.2022,-2.2415 1.6158,0 2.0032,1.3642 1.9899,2.2415 z m 5.391,0.9236 v 0 c 0.0133,-0.1319 0.0428,-0.3372 0.0428,-0.6026 0,-1.3706 -0.6125,-3.4866 -3.1194,-3.4866 -2.2982,0 -3.5762,1.7383 -3.5762,3.9706 0,2.2247 1.3243,3.6057 3.7555,3.6057 1.2578,0 2.0795,-0.2186 2.5329,-0.4071 l -0.222,-0.8975 c -0.48,0.2122 -1.0861,0.3811 -2.1126,0.3811 -1.4371,0 -2.6758,-0.7489 -2.7087,-2.5636 z m -11.842,-5.9144 v 1.8252 h -1.1791 v 0.9241 h 1.1791 v 4.258 c 0,0.9207 0.129,1.5863 0.4899,1.9177 0.3047,0.3077 0.7847,0.4765 1.4272,0.4765 0.5367,0 0.9606,-0.0659 1.2254,-0.1555 l -0.063,-0.864 c -0.1723,0.0462 -0.4401,0.096 -0.8009,0.096 -0.7686,0 -1.0369,-0.55 -1.0369,-1.5169 v -4.2118 h 1.9801 v -0.9241 h -1.9801 v -2.1854 z m -5.1925,6.905 c 0,0.0792 -0.0301,0.2284 -0.0798,0.3608 -0.2215,0.6125 -0.8542,1.2122 -1.8512,1.2122 -0.7148,0 -1.3145,-0.4043 -1.3145,-1.2549 0,-1.4076 1.7257,-1.6592 3.2455,-1.6297 z m 1.3677,2.5399 v 0 c -0.0932,-0.5135 -0.1226,-1.1526 -0.1226,-1.8084 v -2.8013 c 0,-1.5203 -0.5263,-3.01 -2.8112,-3.01 -0.9675,0 -1.865,0.2417 -2.4277,0.6089 l 0.2816,0.8808 c 0.48,-0.3476 1.2255,-0.5656 1.9368,-0.5656 1.5701,0 1.7453,1.1323 1.7453,1.7644 v 0.1561 c -2.9638,-0.0167 -4.4605,0.9537 -4.4605,2.7782 0,0.9698 0.709,1.9535 2.1953,1.9535 1.0935,0 1.9142,-0.4834 2.3381,-1.0294 h 0.0468 l 0.1024,1.0728 z m -10.0868,0 h 1.2445 v -11.1965 h -1.2445 z m -4.0799,-10.8224 c -0.4604,0 -0.7912,0.3447 -0.7912,0.7917 0,0.4303 0.3175,0.7749 0.7617,0.7749 0.5031,0 0.8177,-0.3446 0.8044,-0.7749 0,-0.447 -0.3013,-0.7917 -0.7749,-0.7917 z m 0.7749,10.8224 v 0 -7.666 h -1.2451 v 7.666 z m -9.3622,-9.7855 c 0.2418,-0.07 0.709,-0.1226 1.3249,-0.1226 1.5464,0 2.5631,0.7414 2.5631,2.2814 0,1.6031 -1.0329,2.4838 -2.7256,2.4838 -0.4667,0 -0.8541,-0.0329 -1.1624,-0.1191 z m -1.241,9.7855 v 0 h 1.241 v -4.2985 c 0.3216,0.0659 0.709,0.0792 1.1295,0.0792 1.3711,0 2.5832,-0.3273 3.2587,-0.9901 0.4869,-0.606 0.7448,-1.4336 0.7448,-2.4867 0,-1.0363 -0.3145,-1.8841 -0.8443,-2.3843 -0.5927,-0.4835 -1.6094,-0.7518 -2.9967,-0.7518 -1.1295,0 -1.9339,0.0827 -2.533,0.1758 z m -12.6539,-4.4541 c 0.1163,-0.9571 0.7518,-2.2415 2.2057,-2.2415 1.6129,0 2.0032,1.3642 1.9899,2.2415 z m 5.3944,0.9236 v 0 c 0.0133,-0.1319 0.0434,-0.3372 0.0434,-0.6026 0,-1.3706 -0.6124,-3.4866 -3.1194,-3.4866 -2.3016,0 -3.5762,1.7383 -3.5762,3.9706 0,2.2247 1.3238,3.6057 3.7549,3.6057 1.2584,0 2.0762,-0.2186 2.5301,-0.4071 l -0.2186,-0.8975 c -0.484,0.2122 -1.0866,0.3811 -2.116,0.3811 -1.4342,0 -2.6758,-0.7489 -2.7093,-2.5636 z m -15.1104,0.9906 c 0,0.0792 -0.0295,0.2284 -0.0793,0.3608 -0.222,0.6125 -0.8547,1.2122 -1.8511,1.2122 -0.7154,0 -1.318,-0.4043 -1.318,-1.2549 0,-1.4076 1.7286,-1.6592 3.2484,-1.6297 z m 1.3676,2.5399 v 0 c -0.0925,-0.5135 -0.1254,-1.1526 -0.1254,-1.8084 v -2.8013 c 0,-1.5203 -0.5269,-3.01 -2.8083,-3.01 -0.9675,0 -1.8644,0.2417 -2.4306,0.6089 l 0.2845,0.8808 c 0.4806,-0.3476 1.2255,-0.5656 1.9373,-0.5656 1.5701,0 1.7454,1.1323 1.7454,1.7644 v 0.1561 c -2.9638,-0.0167 -4.4611,0.9537 -4.4611,2.7782 0,0.9698 0.7056,1.9535 2.1924,1.9535 1.0964,0 1.9176,-0.4834 2.3415,-1.0294 h 0.0463 l 0.1024,1.0728 z m -10.0867,-3.1888 c 0,0.218 -0.0168,0.4066 -0.0659,0.5957 -0.262,1.0166 -1.1491,1.6262 -2.1166,1.6262 -1.5597,0 -2.348,-1.2688 -2.348,-2.8019 0,-1.6754 0.8877,-2.9268 2.3815,-2.9268 1.0826,0 1.8708,0.7182 2.0831,1.5955 0.0491,0.1724 0.0659,0.4077 0.0659,0.5795 z m 0,-8.0077 v 0 4.5767 h -0.033 c -0.3608,-0.5332 -1.182,-0.9999 -2.3942,-0.9999 -1.9373,0 -3.3616,1.3943 -3.3449,3.9139 0,2.3011 1.2584,3.6624 3.179,3.6624 1.2983,0 2.2652,-0.5332 2.6925,-1.2983 h 0.0261 l 0.0595,1.3417 h 1.1196 c -0.0462,-0.517 -0.063,-1.2885 -0.063,-1.9639 v -9.2326 z m -10.0012,8.6566 c 0,0.0792 -0.0324,0.2284 -0.0792,0.3608 -0.2221,0.6125 -0.8542,1.2122 -1.8541,1.2122 -0.7124,0 -1.315,-0.4043 -1.315,-1.2549 0,-1.4076 1.7285,-1.6592 3.2483,-1.6297 z m 1.3677,2.5399 v 0 c -0.0925,-0.5135 -0.1255,-1.1526 -0.1255,-1.8084 v -2.8013 c 0,-1.5203 -0.5263,-3.01 -2.8117,-3.01 -0.9664,0 -1.861,0.2417 -2.4272,0.6089 l 0.2811,0.8808 c 0.484,-0.3476 1.2289,-0.5656 1.9414,-0.5656 1.5695,0 1.7418,1.1323 1.7418,1.7644 v 0.1561 c -2.9609,-0.0167 -4.4575,0.9537 -4.4575,2.7782 0,0.9698 0.7049,1.9535 2.1923,1.9535 1.0924,0 1.9171,-0.4834 2.341,-1.0294 h 0.0428 l 0.1029,1.0728 z m -13.9342,-0.0434 h 6.0531 v -0.9235 h -4.3616 v -0.0336 c 0.3412,-0.4169 0.6494,-0.8177 0.9577,-1.2682 l 3.3275,-4.6357 0.0133,-0.7153 h -5.6824 v 0.9241 h 4.0337 v 0.0324 c -0.3377,0.4343 -0.646,0.8183 -0.9704,1.252 l -3.3709,4.6958 z m -3.1194,-10.779 c -0.4603,0 -0.7917,0.3447 -0.7917,0.7917 0,0.4303 0.3175,0.7749 0.7616,0.7749 0.5032,0 0.8177,-0.3446 0.8044,-0.7749 0,-0.447 -0.3012,-0.7917 -0.7743,-0.7917 z m 0.7743,10.8224 v 0 -7.666 h -1.245 v 7.666 z m -6.1161,0 h 1.2451 v -11.1965 h -1.2451 z m -4.8681,-2.5399 c 0,0.0792 -0.033,0.2284 -0.0793,0.3608 -0.222,0.6125 -0.8547,1.2122 -1.8546,1.2122 -0.7119,0 -1.3145,-0.4043 -1.3145,-1.2549 0,-1.4076 1.7286,-1.6592 3.2484,-1.6297 z m 1.3676,2.5399 v 0 c -0.0925,-0.5135 -0.1255,-1.1526 -0.1255,-1.8084 v -2.8013 c 0,-1.5203 -0.5268,-3.01 -2.8117,-3.01 -0.9669,0 -1.8609,0.2417 -2.4271,0.6089 l 0.2811,0.8808 c 0.4834,-0.3476 1.2288,-0.5656 1.9407,-0.5656 1.5701,0 1.7419,1.1323 1.7419,1.7644 v 0.1561 c -2.9603,-0.0167 -4.4576,0.9537 -4.4576,2.7782 0,0.9698 0.7056,1.9535 2.1924,1.9535 1.093,0 1.9176,-0.4834 2.3415,-1.0294 h 0.0428 l 0.103,1.0728 z m -9.2985,-10.8224 c -0.4603,0 -0.7882,0.3447 -0.7882,0.7917 0,0.4303 0.3146,0.7749 0.7581,0.7749 0.5032,0 0.8212,-0.3446 0.8044,-0.7749 0,-0.447 -0.3012,-0.7917 -0.7743,-0.7917 z m 0.7743,10.8224 v 0 -7.666 h -1.2416 v 7.666 z m -4.3806,-1.3446 c -0.3944,0.1724 -0.9143,0.3777 -1.6991,0.3777 -1.5064,0 -2.6393,-1.0861 -2.6393,-2.8482 0,-1.5892 0.9438,-2.8805 2.6862,-2.8805 0.7547,0 1.2746,0.1718 1.6025,0.3603 l 0.3146,-0.9536 c -0.3777,-0.1585 -1.0994,-0.3308 -1.9171,-0.3308 -2.4809,0 -3.9278,1.5232 -3.9278,3.8677 0,2.3276 1.3347,3.7086 3.6294,3.7086 1.023,0 1.8245,-0.2116 2.186,-0.3707 z m -13.3617,-3.1095 c 0.1157,-0.9571 0.7512,-2.2415 2.2022,-2.2415 1.6158,0 2.0061,1.3642 1.9899,2.2415 z m 5.3909,0.9236 v 0 c 0.0162,-0.1319 0.0463,-0.3372 0.0463,-0.6026 0,-1.3706 -0.6159,-3.4866 -3.1194,-3.4866 -2.3016,0 -3.5768,1.7383 -3.5768,3.9706 0,2.2247 1.3249,3.6057 3.7555,3.6057 1.255,0 2.0761,-0.2186 2.5301,-0.4071 l -0.2186,-0.8975 c -0.4834,0.2122 -1.0895,0.3811 -2.116,0.3811 -1.4377,0 -2.6758,-0.7489 -2.7088,-2.5636 z m -14.7698,-0.9271 c 0,-0.1885 0.0497,-0.3938 0.0966,-0.5661 0.2746,-0.9999 1.1687,-1.6719 2.1293,-1.6719 1.4897,0 2.308,1.2942 2.308,2.8077 0,1.7354 -0.8675,2.921 -2.3549,2.921 -1.0097,0 -1.8575,-0.6558 -2.1125,-1.6094 -0.033,-0.1689 -0.0665,-0.358 -0.0665,-0.5598 z m -1.2416,7.6695 v 0 h 1.2416 v -4.2881 h 0.0335 c 0.4638,0.6587 1.3608,1.0328 2.3838,1.0328 1.8286,0 3.3582,-1.1884 3.3582,-3.9041 0,-2.2947 -1.2416,-3.6722 -3.1159,-3.6722 -1.2653,0 -2.1791,0.4603 -2.7423,1.2977 h -0.0295 l -0.0567,-1.344 h -1.1358 c 0.0336,0.7246 0.0631,1.51 0.0631,2.4832 z m -7.6562,-3.7254 c 0.5164,0.2851 1.2422,0.4701 2.02,0.4701 1.6858,0 2.6492,-0.8541 2.6492,-2.149 0,-1.1028 -0.6257,-1.7453 -1.8575,-2.2351 -0.9241,-0.3678 -1.348,-0.646 -1.348,-1.2584 0,-0.55 0.4239,-1.0097 1.189,-1.0097 0.6587,0 1.1687,0.2446 1.4469,0.4303 l 0.3215,-0.934 c -0.3944,-0.2255 -1.0236,-0.4204 -1.7418,-0.4204 -1.5267,0 -2.4572,0.8934 -2.4572,2.0894 0,0.8877 0.6055,1.6221 1.8876,2.0963 0.9536,0.3672 1.3179,0.7217 1.3179,1.3642 0,0.6125 -0.4407,1.1029 -1.3781,1.1029 -0.6454,0 -1.3272,-0.2753 -1.7118,-0.5367 z m -2.8181,-5.5465 h -4.1163 v -3.8481 h 4.3511 v -0.9241 h -5.5962 v 10.7888 h 5.8316 v -0.9235 h -4.5865 v -4.1696 h 4.1163 z m -14.4581,3.5201 c 0,0.0792 -0.033,0.2284 -0.0793,0.3608 -0.222,0.6125 -0.8541,1.2122 -1.8546,1.2122 -0.7119,0 -1.3145,-0.4043 -1.3145,-1.2549 0,-1.4076 1.7286,-1.6592 3.2484,-1.6297 z m 1.3677,2.5399 v 0 c -0.0926,-0.5135 -0.1255,-1.1526 -0.1255,-1.8084 v -2.8013 c 0,-1.5203 -0.5269,-3.01 -2.8117,-3.01 -0.967,0 -1.861,0.2417 -2.4272,0.6089 l 0.2811,0.8808 c 0.484,-0.3476 1.2289,-0.5656 1.9408,-0.5656 1.5695,0 1.7418,1.1323 1.7418,1.7644 v 0.1561 c -2.9603,-0.0167 -4.4576,0.9537 -4.4576,2.7782 0,0.9698 0.7056,1.9535 2.1924,1.9535 1.093,0 1.9171,-0.4834 2.3415,-1.0294 h 0.0428 l 0.103,1.0728 z m -9.2986,-10.8224 c -0.4603,0 -0.7882,0.3447 -0.7882,0.7917 0,0.4303 0.3146,0.7749 0.7581,0.7749 0.5037,0 0.8212,-0.3446 0.805,-0.7749 0,-0.447 -0.3013,-0.7917 -0.7749,-0.7917 z m 0.7749,10.8224 v 0 -7.666 h -1.2422 v 7.666 z m -10.0011,-4.4576 c 0,-0.1885 0.0468,-0.3938 0.0965,-0.5661 0.2713,-0.9999 1.1653,-1.6719 2.1259,-1.6719 1.4897,0 2.308,1.2942 2.308,2.8077 0,1.7354 -0.8646,2.921 -2.3549,2.921 -1.0097,0 -1.8575,-0.6558 -2.1125,-1.6094 -0.033,-0.1689 -0.063,-0.358 -0.063,-0.5598 z m -1.2451,7.6695 v 0 h 1.2451 v -4.2881 h 0.03 c 0.4638,0.6587 1.3614,1.0328 2.3844,1.0328 1.828,0 3.3576,-1.1884 3.3576,-3.9041 0,-2.2947 -1.2416,-3.6722 -3.1159,-3.6722 -1.2647,0 -2.1756,0.4603 -2.7423,1.2977 h -0.0295 l -0.0567,-1.344 h -1.1358 c 0.0336,0.7246 0.0631,1.51 0.0631,2.4832 z m -4.8711,-5.7518 c 0,0.0792 -0.03,0.2284 -0.0763,0.3608 -0.2215,0.6125 -0.8576,1.2122 -1.854,1.2122 -0.7125,0 -1.3151,-0.4043 -1.3151,-1.2549 0,-1.4076 1.7256,-1.6592 3.2454,-1.6297 z m 1.3712,2.5399 v 0 c -0.096,-0.5135 -0.1261,-1.1526 -0.1261,-1.8084 v -2.8013 c 0,-1.5203 -0.5268,-3.01 -2.8117,-3.01 -0.9669,0 -1.8639,0.2417 -2.4271,0.6089 l 0.2816,0.8808 c 0.4835,-0.3476 1.2248,-0.5656 1.9408,-0.5656 1.566,0 1.7413,1.1323 1.7413,1.7644 v 0.1561 c -2.9633,-0.0167 -4.457,0.9537 -4.457,2.7782 0,0.9698 0.7049,1.9535 2.1923,1.9535 1.0924,0 1.9171,-0.4834 2.341,-1.0294 h 0.0428 l 0.1029,1.0728 z m -11.3718,0 h 1.2416 v -4.0134 c 0,-0.2319 0.033,-0.4505 0.0631,-0.6396 0.1885,-1.0265 0.8807,-1.7587 1.8546,-1.7587 0.1885,0 0.3308,0.0174 0.4731,0.0469 v -1.3012 c -0.1255,0.026 -0.2348,0.0127 -0.3939,0.0127 -0.927,0 -1.7586,0.6124 -2.0963,1.5996 h -0.0561 l -0.0434,-1.6123 h -1.1057 c 0.0463,0.7113 0.063,1.4897 0.063,2.3936 z m -8.4212,-4.4541 c 0.1122,-0.9571 0.7483,-2.2415 2.2022,-2.2415 1.6157,0 2.0032,1.3642 1.9899,2.2415 z m 5.3909,0.9236 v 0 c 0.0168,-0.1319 0.0428,-0.3372 0.0428,-0.6026 0,-1.3706 -0.6124,-3.4866 -3.1194,-3.4866 -2.2976,0 -3.5727,1.7383 -3.5727,3.9706 0,2.2247 1.3243,3.6057 3.7549,3.6057 1.2555,0 2.0767,-0.2186 2.5301,-0.4071 l -0.2186,-0.8975 c -0.4835,0.2122 -1.0895,0.3811 -2.116,0.3811 -1.4371,0 -2.6753,-0.7489 -2.7088,-2.5636 z m -11.8419,-5.9144 v 1.8252 h -1.1792 v 0.9241 h 1.1792 v 4.258 c 0,0.9207 0.129,1.5863 0.4898,1.9177 0.3048,0.3077 0.7848,0.4765 1.4279,0.4765 0.536,0 0.9599,-0.0659 1.2248,-0.1555 l -0.0596,-0.864 c -0.1752,0.0462 -0.4406,0.096 -0.8009,0.096 -0.7721,0 -1.0404,-0.55 -1.0404,-1.5169 v -4.2118 h 1.9801 v -0.9241 h -1.9801 v -2.1854 z m -6.9414,2.7493 c 1.7158,0 2.3913,1.5926 2.3913,2.8476 0,1.6718 -1.0398,2.8811 -2.4242,2.8811 -1.4204,0 -2.4272,-1.2255 -2.4272,-2.8482 0,-1.4105 0.742,-2.8805 2.4601,-2.8805 z m 0.0336,-0.9241 v 0 c -2.212,0 -3.7353,1.3677 -3.7353,3.8509 0,2.3415 1.4406,3.7254 3.6028,3.7254 1.9304,0 3.7318,-1.1092 3.7318,-3.8474 0,-2.2687 -1.3075,-3.7289 -3.5993,-3.7289 z m -7.1762,-3.2027 c -0.4569,0 -0.7882,0.3447 -0.7882,0.7917 0,0.4303 0.3146,0.7749 0.7587,0.7749 0.5031,0 0.8212,-0.3446 0.8044,-0.7749 0,-0.447 -0.3013,-0.7917 -0.7749,-0.7917 z m 0.7749,10.8224 v 0 -7.666 h -1.2422 v 7.666 z m -8.8977,-0.5135 c 0.5164,0.2851 1.2381,0.4701 2.0194,0.4701 1.6857,0 2.6498,-0.8541 2.6498,-2.149 0,-1.1028 -0.6292,-1.7453 -1.8581,-2.2351 -0.9241,-0.3678 -1.3509,-0.646 -1.3509,-1.2584 0,-0.55 0.4268,-1.0097 1.1884,-1.0097 0.6592,0 1.1728,0.2446 1.4504,0.4303 l 0.3215,-0.934 c -0.3938,-0.2255 -1.023,-0.4204 -1.7418,-0.4204 -1.5268,0 -2.4607,0.8934 -2.4607,2.0894 0,0.8877 0.606,1.6221 1.8876,2.0963 0.9542,0.3672 1.3214,0.7217 1.3214,1.3642 0,0.6125 -0.4401,1.1029 -1.3775,1.1029 -0.646,0 -1.3278,-0.2753 -1.7118,-0.5367 z m -3.5404,-10.3089 c -0.4604,0 -0.7911,0.3447 -0.7911,0.7917 0,0.4303 0.318,0.7749 0.7616,0.7749 0.4996,0 0.8177,-0.3446 0.8009,-0.7749 0,-0.447 -0.3013,-0.7917 -0.7714,-0.7917 z m 0.7714,10.8224 v 0 -7.666 h -1.2416 v 7.666 z"
       style="fill:#9975d0;fill-rule:evenodd"
       id="path833" />
    <path
       d="m 138.0148,136.8404 c -0.831,0.8483 -1.2983,1.8609 -1.3943,3.0366 v 36.2747 c 0.2354,1.2751 0.7715,2.3178 1.6095,3.1425 0.831,0.8212 1.8476,1.2318 3.043,1.2318 1.3318,-0.0428 2.4439,-0.5095 3.3252,-1.3943 0.8843,-0.8837 1.3244,-1.957 1.3244,-3.2148 v -12.6406 c 0.2319,-2.0957 1.0866,-3.8607 2.5601,-5.3082 1.4735,-1.444 3.2616,-2.1658 5.3678,-2.1658 1.1225,0 2.149,0.2088 3.0864,0.6327 0.934,0.4204 1.7552,0.9866 2.4572,1.7089 0.7021,0.7252 1.2486,1.5626 1.6488,2.5133 0.3944,0.9536 0.5962,1.9437 0.5962,2.9667 v 12.574 c 0.1891,1.2584 0.7119,2.2982 1.5632,3.1096 0.8512,0.8148 1.891,1.2185 3.1228,1.2185 1.3214,-0.0428 2.4242,-0.5095 3.3015,-1.4041 0.871,-0.8941 1.3145,-1.9703 1.3145,-3.2351 v -12.869 c 0,-2.2976 -0.4632,-4.45 -1.3839,-6.4671 -0.9241,-2.02 -2.1593,-3.7752 -3.7121,-5.2753 -1.5568,-1.5001 -3.375,-2.6724 -5.4476,-3.5167 -2.0767,-0.8449 -4.2719,-1.2682 -6.5834,-1.2682 -1.3209,0 -2.7088,0.1457 -4.1725,0.4303 -1.4637,0.2851 -2.7353,0.7882 -3.8185,1.5001 l 0.0995,-8.209 c -0.0995,-1.3776 -0.5859,-2.4971 -1.4672,-3.3548 -0.8836,-0.8541 -1.9466,-1.285 -3.1824,-1.285 -1.3376,0 -2.4271,0.4274 -3.2582,1.2683 z m 119.9743,10.7269 c 5.2938,1.9732 9.727,5.6281 13.6092,9.4923 1.4689,-1.7563 2.9638,-3.4704 4.5628,-5.0081 0.218,-0.2383 0.4436,-0.4719 0.676,-0.6998 1.4869,-1.4561 3.1911,-2.6469 5.1036,-3.5698 l 0.019,-0.01 6e-4,6e-4 0.3904,-0.1827 c 2.0732,-0.9438 4.2684,-1.4209 6.5736,-1.4209 4.7021,0 8.6988,1.669 11.9974,5.0104 0.7981,0.9143 1.1624,1.987 1.093,3.2223 -0.0699,1.2381 -0.5297,2.2583 -1.374,3.0563 -0.8513,0.8016 -1.9344,1.222 -3.246,1.2682 -1.3174,0.0498 -2.4006,-0.377 -3.2484,-1.2682 -1.1525,-1.0392 -2.4803,-1.6701 -3.9879,-1.8893 -0.2059,0.002 -0.4274,-0.003 -0.6715,-0.0144 -0.5522,-0.0758 -1.0901,-0.0718 -1.6169,5e-4 l -0.1342,0.0203 c -0.0954,0.015 -0.1902,0.0318 -0.2851,0.0514 l -0.0746,0.0157 c -1.2838,0.2845 -2.5121,0.9779 -3.7399,1.9604 -0.1087,0.0977 -0.2151,0.1989 -0.3186,0.3025 -0.0694,0.0688 -0.1943,0.1607 -0.3626,0.27 -1.6453,1.4516 -3.309,3.3791 -5.1243,5.498 3.0783,3.3183 5.8426,6.0912 8.534,7.1721 0.805,0.2857 1.6574,0.4106 2.5596,0.3689 2.0697,0 3.8081,-0.6355 5.222,-1.9107 0.8478,-0.9368 1.931,-1.411 3.2484,-1.411 1.3116,0 2.3947,0.4742 3.246,1.411 0.4204,0.3811 0.7483,0.8281 0.9831,1.3515 0.2354,0.5193 0.3643,1.0629 0.3909,1.632 0.0197,0.5731 -0.0595,1.1364 -0.2452,1.6892 -0.192,0.5494 -0.4701,1.0363 -0.8478,1.4637 -1.6487,1.6759 -3.464,2.9407 -5.4377,3.7983 -1.9732,0.8646 -4.1621,1.2879 -6.5597,1.2879 -2.3543,0 -4.5698,-0.4604 -6.6465,-1.3839 -1.5111,-0.6714 -2.8857,-1.5094 -4.1291,-2.5179 -2.4127,-1.7691 -4.5142,-3.9204 -6.4949,-6.1688 -3.482,3.3981 -7.6475,6.5522 -12.9777,8.4236 -0.2163,0.1035 -0.436,0.2035 -0.6587,0.2995 -2.079,0.9004 -4.3245,1.3475 -6.7355,1.3475 -2.3641,0 -4.583,-0.4205 -6.6626,-1.2746 -2.0865,-0.8513 -3.9041,-2.0466 -5.4638,-3.5866 -1.5568,-1.5331 -2.7851,-3.3444 -3.6827,-5.4274 -0.9039,-2.0831 -1.3474,-4.3546 -1.3474,-6.8188 0,-2.3641 0.4337,-4.5761 1.311,-6.6326 0.8744,-2.0564 2.0796,-3.8578 3.6132,-5.4013 1.5331,-1.5331 3.3542,-2.7684 5.4569,-3.6925 v 0 c 2.1062,-0.9206 4.3616,-1.4267 6.7754,-1.5232 2.3184,0 4.5108,0.4505 6.5932,1.348 z m 7.9164,16.1832 c -3.63,-4.033 -7.522,-7.3872 -12.9517,-8.1592 l -0.0191,0.1052 c -0.5234,-0.1197 -1.0733,-0.1926 -1.6528,-0.2151 -1.0762,0 -2.083,0.2053 -3.0164,0.6061 -0.9374,0.4071 -1.7685,0.9634 -2.4908,1.6753 -0.7252,0.7119 -1.2977,1.5597 -1.7181,2.533 -0.421,0.9802 -0.6298,2.0367 -0.6298,3.176 0,1.0959 0.2088,2.1328 0.6298,3.1061 0.4204,0.9738 0.9929,1.8315 1.7181,2.57 0.7223,0.7384 1.5534,1.3179 2.4908,1.7453 0.9334,0.4337 1.9402,0.6419 3.0164,0.6419 0.2122,0 0.4175,-0.006 0.6228,-0.0226 l 0.0521,0.0556 c 5.8993,-0.4511 10.1521,-3.7365 13.9487,-7.8176 z M 74.0724,192.199 c -2.6359,7.1531 4.1031,4.1499 4.1031,4.1499 l 21.7401,-6.5336 c 7.1531,-2.0108 7.5602,-5.1759 8.7128,-10.0209 3.6756,-15.458 12.2924,-49.2454 19.9549,-60.9289 0,0 31.2509,21.6939 55.0874,7.4081 21.7142,-12.1698 18.5381,-43.2091 8.4745,-51.8518 C 182.081,65.6032 152.986,52.1386 123.2883,94.5259 l -0.2585,0.3082 c -1.758,-1.5105 -12.2259,-10.1532 -20.9282,-9.8317 -9.5339,0.3539 -14.6536,3.3513 -21.1873,2.6457 -6.5308,-0.7055 -11.1236,-0.5268 -11.1236,-0.5268 0,0 2.1194,1.0566 1.5897,4.232 -0.5297,3.1726 -3.1755,2.6463 -3.1755,2.6463 0,0 3.3542,2.2913 13.2391,1.5863 9.8885,-0.7055 17.3457,2.6458 17.3457,2.6458 l -1.9836,1.0565 c 0,0 -7.0634,-2.9973 -14.302,-2.116 -7.2392,0.8808 -14.2992,-1.5863 -14.2992,-1.5863 0,0 15.7131,12.8748 21.7136,13.2258 5.8443,0.3447 16.5372,-4.6588 23.29,-0.3707 -9.1597,13.892 -24.9231,47.259 -39.1361,83.758 z m 61.9294,-87.6193 v 0 c 0,0 14.2985,-29.6282 34.4264,-26.4556 19.0678,3.1754 12.7128,25.9259 6.3544,29.6316 -4.7647,3.7023 -20.6536,12.6961 -40.7808,-3.176 z M 60.2567,90.5587 v 0 c 0,1.3145 2.1363,2.3809 4.7687,2.3809 2.633,0 4.7653,-1.0664 4.7653,-2.3809 0,-1.3144 -2.1323,-2.3808 -4.7653,-2.3808 -2.6324,0 -4.7687,1.0664 -4.7687,2.3808 z m 3.7093,-3.9671 v 0 h 4.7687 c 0,0 -7.2855,-17.197 -9.0042,-17.9881 -1.7222,-0.7946 -1.5898,1.0565 -1.5898,1.0565 z m 5.8247,-0.5297 v 0 h 1.5897 c 0,0 -5.6922,-14.6837 -9.5339,-16.9316 z m 2.6492,0 v 0 h 1.5897 c 0,0 -6.2225,-14.2859 -9.0042,-15.3424 0,0 6.4874,11.5076 7.4145,15.3424 z m 2.6492,0 v 0 h 1.5897 c 0,0 -6.4903,-12.8291 -8.4739,-13.7561 0,0 5.8247,10.0538 6.8842,13.7561 z m 29.6617,-17.4584 v 0 c 0,7.0101 5.6888,12.696 12.7129,12.696 7.02,0 12.7093,-5.6859 12.7093,-12.696 0,-7.0137 -5.6893,-12.6996 -12.7093,-12.6996 -7.0241,0 -12.7129,5.6859 -12.7129,12.6996 z m 273.2235,91.0503 c 0.7952,-1.54 1.7222,-2.6197 2.7851,-3.239 1.0566,-0.6223 2.2716,-0.9334 3.6329,-0.9334 1.3174,0 2.5168,0.3111 3.5994,0.9334 1.0831,0.6193 2.0235,1.699 2.825,3.239 z m -0.1457,-12.0639 v 0 c -2.0698,0.9472 -3.8776,2.212 -5.4344,3.7948 -1.5527,1.5863 -2.7845,3.4241 -3.7022,5.5072 -0.9172,2.0795 -1.3741,4.232 -1.3741,6.4573 0,2.2716 0.4569,4.4738 1.3741,6.5996 0.9177,2.1328 2.1663,3.9909 3.7387,5.5772 1.573,1.5862 3.3975,2.8342 5.4673,3.7584 2.0703,0.9206 4.2355,1.3347 6.4943,1.2416 1.7384,-0.0428 3.3877,-0.2649 4.9439,-0.6651 1.5533,-0.4013 2.9604,-1.1196 4.232,-2.1594 0.7021,-0.7518 1.1127,-1.5729 1.2353,-2.4734 0.1128,-0.8911 -0.006,-1.7291 -0.358,-2.5069 -0.3504,-0.7749 -0.8906,-1.4209 -1.6186,-1.9443 -0.7322,-0.5164 -1.5863,-0.7946 -2.577,-0.8478 -0.5199,0 -0.9767,0.0665 -1.3769,0.1955 -0.4008,0.1324 -0.7952,0.2782 -1.1959,0.447 -0.4008,0.1724 -0.864,0.3216 -1.381,0.454 -0.5135,0.129 -1.152,0.1885 -1.9038,0.1885 -2.7255,0 -4.8647,-1.285 -6.418,-3.8515 h 18.7665 c 1.3642,0.0498 2.507,-0.288 3.4242,-0.9999 0.9171,-0.7118 1.3775,-1.6851 1.3775,-2.9239 0,-2.2848 -0.4702,-4.4604 -1.414,-6.5267 -0.9403,-2.0703 -2.1987,-3.9012 -3.7723,-5.4944 -1.5793,-1.5962 -3.4038,-2.8673 -5.4736,-3.818 -2.0697,-0.9536 -4.2355,-1.4307 -6.4903,-1.4307 -2.3051,0 -4.494,0.4771 -6.5637,1.4209 z m -26.4158,31.754 c 0.8276,-0.7946 1.2879,-1.7916 1.3839,-3.0072 v -12.7128 c 0,-1.1155 0.2088,-2.1519 0.6292,-3.1061 0.4239,-0.9536 0.9901,-1.7811 1.6956,-2.4768 0.702,-0.6986 1.5267,-1.2451 2.4705,-1.6424 0.9438,-0.3973 1.9506,-0.5963 3.0332,-0.5963 1.318,-0.0462 2.4242,-0.5135 3.3148,-1.3937 0.8941,-0.8848 1.3446,-1.9737 1.3446,-3.2622 -0.096,-1.285 -0.576,-2.3843 -1.4469,-3.2917 -0.8744,-0.9073 -1.9674,-1.3642 -3.2854,-1.3642 -2.3045,0.0925 -4.4836,0.576 -6.5302,1.444 -2.0466,0.8675 -3.8411,2.0426 -5.3811,3.5167 -1.5365,1.477 -2.7718,3.2119 -3.6924,5.2018 -0.9236,1.994 -1.4076,4.1164 -1.4539,6.3648 v 13.0078 c 0.0896,1.3613 0.5662,2.4509 1.4174,3.2721 0.8547,0.8246 1.9142,1.2283 3.1992,1.2283 1.3706,0 2.4699,-0.3904 3.3015,-1.1821 z m -31.8535,-8.7624 c -0.9409,-0.4205 -1.7719,-0.9831 -2.5006,-1.6852 -0.7315,-0.7026 -1.3179,-1.5302 -1.7644,-2.4937 -0.4441,-0.957 -0.6662,-1.9772 -0.6662,-3.0534 0,-1.03 0.2122,-2.0229 0.6327,-2.9869 0.4204,-0.9571 0.9964,-1.8014 1.7285,-2.5301 0.7252,-0.7217 1.5597,-1.2977 2.5,-1.7187 0.9438,-0.4239 1.931,-0.6321 2.9609,-0.6321 1.0329,0 2.0299,0.2082 2.9933,0.6321 0.9606,0.421 1.8084,0.997 2.5405,1.7187 0.7281,0.7287 1.3047,1.573 1.7251,2.5301 0.4204,0.964 0.6356,1.9569 0.6356,2.9869 0,1.1225 -0.2152,2.1658 -0.6356,3.1228 -0.4204,0.9635 -0.9872,1.7916 -1.6892,2.4937 -0.7084,0.7055 -1.5429,1.2549 -2.507,1.6522 -0.96,0.4008 -1.9835,0.5962 -3.0627,0.5962 -0.9871,0 -1.9471,-0.2087 -2.8909,-0.6326 z m 3.9903,-24.4125 v 0 h -1.0265 c -3.5404,0 -6.7025,0.9472 -9.4842,2.8383 -2.7851,1.8974 -4.8618,4.3806 -6.2225,7.4572 -0.4771,1.0895 -0.8414,2.2022 -1.1028,3.3351 -0.2614,1.1358 -0.3875,2.3178 -0.3875,3.5496 0,1.2318 0.1261,2.4173 0.3875,3.5502 0.255,1.1358 0.6159,2.2485 1.086,3.331 1.3579,3.0303 3.4178,5.5038 6.1861,7.4214 2.762,1.9177 5.8981,2.8742 9.4113,2.8742 1.3579,0 2.6458,-0.1059 3.8648,-0.321 1.1723,-0.2816 2.3179,-0.6824 3.4404,-1.2023 0.1925,-0.0925 0.3874,-0.1949 0.5765,-0.318 0.192,-0.1157 0.4072,-0.2181 0.6489,-0.321 1.0068,1.4469 2.3543,2.1623 4.0365,2.1623 1.1989,0 2.2751,-0.4471 3.2385,-1.3475 0.9606,-0.9039 1.4441,-1.994 1.4441,-3.2784 v -12.5873 c 0,-2.1791 -0.391,-4.2552 -1.1688,-6.2226 -0.7813,-1.9668 -1.8448,-3.7219 -3.1859,-5.2683 -1.3445,-1.54 -2.947,-2.8083 -4.8114,-3.8012 -1.8645,-0.9935 -3.8544,-1.6129 -5.9809,-1.8517 z m -101.1111,1.7621 c -0.8837,0.8009 -1.3741,1.8077 -1.4632,3.0332 v 25.5748 c 0.1851,1.3677 0.6952,2.4272 1.5331,3.179 0.831,0.7552 1.8546,1.1294 3.0627,1.1294 1.3417,-0.096 2.4081,-0.5598 3.2027,-1.4076 0.7847,-0.8507 1.182,-1.9072 1.182,-3.1824 v -25.0052 c -0.096,-1.2717 -0.5459,-2.3543 -1.3578,-3.2484 -0.8143,-0.8906 -1.8246,-1.3445 -3.0269,-1.3445 -1.2081,0.0497 -2.2513,0.4736 -3.1326,1.2717 z m -0.0359,-11.0705 v 0 c -0.9074,0.864 -1.3845,1.9107 -1.4273,3.1523 0,1.5302 0.4234,2.7123 1.2879,3.5468 0.8577,0.8379 1.957,1.278 3.3079,1.3243 1.2023,0 2.2329,-0.4632 3.0968,-1.3937 0.8577,-0.934 1.2879,-2.0166 1.2879,-3.2622 0,-1.2382 -0.4302,-2.3242 -1.2879,-3.2553 -0.8639,-0.934 -1.8945,-1.4007 -3.0968,-1.4007 -1.2081,0 -2.2681,0.4309 -3.1685,1.2885 z m -24.1812,9.3084 c -1.5128,0.0497 -2.9077,0.3643 -4.1886,0.9542 -1.2816,0.5893 -2.4011,1.3769 -3.3513,2.3606 -0.9536,0.9901 -1.6991,2.1426 -2.2456,3.4577 -0.5459,1.3145 -0.8177,2.6787 -0.8177,4.0892 0,1.4145 0.2551,2.729 0.7778,3.9538 0.5199,1.2254 1.2359,2.3514 2.1594,3.3883 0.9172,1.0329 2.0004,1.8442 3.2518,2.4306 1.2521,0.5893 2.5862,0.8808 4.0007,0.8808 h 7.7852 c 1.2751,0 1.9107,0.6257 1.9107,1.8708 0,1.1097 -0.6356,1.6591 -1.9038,1.6591 h -12.9847 c -1.2219,0.0498 -2.2617,0.5627 -3.106,1.5401 -0.8478,0.9831 -1.2688,2.0697 -1.2688,3.2616 0,1.2913 0.4441,2.3647 1.3382,3.2223 0.8906,0.8646 1.9535,1.2879 3.176,1.2879 h 12.9841 c 1.6458,0 3.1292,-0.2649 4.4408,-0.8079 1.3145,-0.5396 2.467,-1.2781 3.4536,-2.2155 0.9872,-0.9403 1.7719,-2.0894 2.3612,-3.4542 0.5864,-1.3573 0.8548,-2.8146 0.8114,-4.3639 0,-1.4047 -0.2614,-2.6723 -0.7778,-3.8017 -0.517,-1.126 -1.2318,-2.1924 -2.1461,-3.2021 -0.9172,-1.0103 -1.9969,-1.8147 -3.242,-2.4277 -1.2416,-0.6125 -2.5896,-0.9207 -4.0435,-0.9207 h -7.9574 c -0.5627,0 -1.0433,-0.1856 -1.4441,-0.5563 -0.4002,-0.3707 -0.5962,-0.9074 -0.5962,-1.606 0,-0.6425 0.1989,-1.1392 0.5997,-1.4903 0.4037,-0.344 0.8842,-0.5198 1.4504,-0.5198 h 12.1334 c 1.1259,0 2.1489,-0.4534 3.0696,-1.3608 0.9172,-0.901 1.3775,-1.9604 1.3775,-3.1697 0,-1.0658 -0.4233,-2.079 -1.2711,-3.0297 -0.8478,-0.9536 -1.9043,-1.4307 -3.176,-1.4307 z m -22.6111,1.7621 c -0.8807,0.8009 -1.374,1.8077 -1.4631,3.0332 v 25.5748 c 0.1851,1.3677 0.6952,2.4272 1.5331,3.179 0.831,0.7552 1.8541,1.1294 3.0627,1.1294 1.3417,-0.096 2.411,-0.5598 3.2027,-1.4076 0.7847,-0.8507 1.182,-1.9072 1.182,-3.1824 v -25.0052 c -0.096,-1.2717 -0.5465,-2.3543 -1.3579,-3.2484 -0.8113,-0.8906 -1.8245,-1.3445 -3.0268,-1.3445 -1.2086,0.0497 -2.2513,0.4736 -3.1327,1.2717 z m -0.0358,-11.0705 v 0 c -0.9045,0.864 -1.381,1.9107 -1.4273,3.1523 0,1.5302 0.4268,2.7123 1.2879,3.5468 0.8576,0.8379 1.9605,1.278 3.3079,1.3243 1.2023,0 2.2357,-0.4632 3.0968,-1.3937 0.8571,-0.934 1.2879,-2.0166 1.2879,-3.2622 0,-1.2382 -0.4308,-2.3242 -1.2879,-3.2553 -0.8611,-0.934 -1.8945,-1.4007 -3.0968,-1.4007 -1.2086,0 -2.2646,0.4309 -3.1685,1.2885 z"
       style="fill:#38b8d4;fill-rule:evenodd"
       id="path835" />
  </g>
</svg>
